<?xml version="1.0" encoding="utf-8"?>
<!-- Generator: Adobe Illustrator 27.5.0, SVG Export Plug-In . SVG Version: 6.00 Build 0)  -->
<svg version="1.1" xmlns="http://www.w3.org/2000/svg" xmlns:xlink="http://www.w3.org/1999/xlink" x="0px" y="0px"
	 viewBox="0 0 500 500" style="enable-background:new 0 0 500 500;" xml:space="preserve">
<g id="Background_Simple">
	<g>
		<path style="fill:#92E3A9;" d="M460.492,313.692c-14.22,38.088-43.276,79.311-84.163,91.515
			c-61.778,18.447-69.159,68.245-179.811,63.626c-17.252-0.718-33.198-3.144-47.848-7.017c-7.875-2.081-15.377-4.591-22.496-7.483
			C61.532,428.151,27.811,370.525,25.011,310.23c-3.695-79.301,51.636-117.1,87.596-139.232
			c35.96-22.132,79.301-107.891,188.115-104.205c16.59,0.569,33.143,2.836,49.182,7.185c36.613,9.909,73.833,31.827,95.462,63.868
			c1.624,2.407,3.173,4.871,4.656,7.381C478.967,194.334,479.881,261.766,460.492,313.692z"/>
		<path style="opacity:0.8;fill:#FFFFFF;" d="M460.492,313.692c-14.22,38.088-43.276,79.311-84.163,91.515
			c-61.778,18.447-69.159,68.245-179.811,63.626c-17.252-0.718-33.198-3.144-47.848-7.017c-7.875-2.081-15.377-4.591-22.496-7.483
			C61.532,428.151,27.811,370.525,25.011,310.23c-3.695-79.301,51.636-117.1,87.596-139.232
			c35.96-22.132,79.301-107.891,188.115-104.205c16.59,0.569,33.143,2.836,49.182,7.185c36.613,9.909,73.833,31.827,95.462,63.868
			c1.624,2.407,3.173,4.871,4.656,7.381C478.967,194.334,479.881,261.766,460.492,313.692z"/>
	</g>
</g>
<g id="Target">
	<g>
		<g style="opacity:0.3;">
			
				<ellipse transform="matrix(0.7071 -0.7071 0.7071 0.7071 -44.3364 117.309)" cx="119.436" cy="112.173" rx="33.078" ry="33.078"/>
			
				<ellipse transform="matrix(0.6725 -0.7401 0.7401 0.6725 -43.9034 125.1357)" style="fill:#FFFFFF;" cx="119.436" cy="112.173" rx="21.628" ry="21.628"/>
			<circle cx="119.436" cy="112.173" r="11.45"/>
		</g>
		<path style="fill:#263238;" d="M106.301,118.724l-0.905,6.934l12.906-12.876l-18.231,0.155l5.575,4.223l-32.1,13.436l-8.949-1.563
			l-8.538,3.574l5.624,3.161c-0.123,0.22-0.16,0.485-0.055,0.736c0.105,0.251,0.32,0.412,0.564,0.478l-1.691,6.236l8.538-3.574
			l5.043-7.434L106.301,118.724z"/>
	</g>
</g>
<g id="Calendar">
	<path style="opacity:0.3;" d="M428.264,34.764v-4.679h-4.501v4.679H410.71v-4.679h-4.501v4.679h-13.053v-4.679h-4.501v4.679
		h-13.053v-4.679H371.1v4.679h-13.053v-4.679h-4.501v4.679h-16.208v95.246h103.76V34.764H428.264z M353.73,122.993h-9.187v-9.187
		h9.187V122.993z M353.73,109.94h-9.187v-9.187h9.187V109.94z M353.73,96.886h-9.187V87.7h9.187V96.886z M353.73,83.833h-9.187
		v-9.187h9.187V83.833z M367.128,122.993h-9.187v-9.187h9.187V122.993z M367.128,109.94h-9.187v-9.187h9.187V109.94z
		 M367.128,96.886h-9.187V87.7h9.187V96.886z M367.128,83.833h-9.187v-9.187h9.187V83.833z M380.525,122.993h-9.187v-9.187h9.187
		V122.993z M380.525,109.94h-9.187v-9.187h9.187V109.94z M380.525,96.886h-9.187V87.7h9.187V96.886z M380.525,83.833h-9.187v-9.187
		h9.187V83.833z M393.923,122.993h-9.187v-9.187h9.187V122.993z M393.923,109.94h-9.187v-9.187h9.187V109.94z M393.923,96.886
		h-9.187V87.7h9.187V96.886z M393.923,83.833h-9.187v-9.187h9.187V83.833z M407.32,122.993h-9.187v-9.187h9.187V122.993z
		 M407.32,109.94h-9.187v-9.187h9.187V109.94z M407.32,96.886h-9.187V87.7h9.187V96.886z M407.32,83.833h-9.187v-9.187h9.187V83.833
		z M420.718,122.993h-9.187v-9.187h9.187V122.993z M420.718,109.94h-9.187v-9.187h9.187V109.94z M420.718,96.886h-9.187V87.7h9.187
		V96.886z M420.718,83.833h-9.187v-9.187h9.187V83.833z M434.115,122.993h-9.187v-9.187h9.187V122.993z M434.115,109.94h-9.187
		v-9.187h9.187V109.94z M434.115,96.886h-9.187V87.7h9.187V96.886z M434.115,83.833h-9.187v-9.187h9.187V83.833z M435.016,64.294
		h-91.373V42.688h91.373V64.294z"/>
</g>
<g id="Plants">
	<g>
		<path style="fill:#92E3A9;" d="M369.387,160.227c0,0,1.51-15.098-4.529-21.892c-6.039-6.794-15.098,1.51-12.833,10.568
			C354.289,157.962,369.387,160.227,369.387,160.227z"/>
		<path style="fill:#92E3A9;" d="M352.041,227.505c0,0,2.353-23.531-7.059-34.12c-9.413-10.589-23.531,2.353-20.002,16.472
			C328.51,223.975,352.041,227.505,352.041,227.505z"/>
		<path style="fill:#92E3A9;" d="M346.945,265.638c0,0-2.588-23.507-13.996-31.909s-22.529,7.192-16.142,20.269
			S346.945,265.638,346.945,265.638z"/>
		<path style="fill:#92E3A9;" d="M370.898,285.324c-13.912,2.678-26.36,22.785-26.36,22.785s20.823,11.514,32.214,2.456
			C388.142,301.508,384.81,282.647,370.898,285.324z"/>
		<path style="fill:#92E3A9;" d="M375.502,320.749c-19.903,3.831-37.712,32.597-37.712,32.597s29.79,16.472,46.086,3.514
			C400.172,343.901,395.405,316.918,375.502,320.749z"/>
		<path style="fill:#92E3A9;" d="M342.988,308.43c0.63-0.014,0.987-0.035,0.987-0.035s-0.124-1.122-0.435-2.962
			c1.594-8.915,3.196-20.128,5.109-33.521c0.26-1.818,0.527-3.689,0.798-5.583c5.427,2.574,20.984,8.867,30.273,1.48
			c11.391-9.058,8.059-27.919-5.854-25.241c-10.061,1.937-19.353,12.985-23.728,18.956c1.227-8.504,2.574-17.642,4.086-27.218
			c0.254-1.611,0.544-3.298,0.864-5.047c5.348,3.949,18.445,12.224,28.561,7.181c13.024-6.493,13.685-25.635-0.48-25.907
			c-10.201-0.196-21.536,8.608-27.082,13.551c2.035-10.079,4.868-21.726,7.878-33.227c3.253,2.445,11.919,8.113,18.576,4.795
			c8.357-4.166,8.78-16.448-0.308-16.622c-6.611-0.127-13.947,5.625-17.465,8.777c2.425-9.152,4.927-18.11,7.192-26.009
			c3.742,2.651,11.577,7.218,17.707,4.161c8.357-4.166,8.78-16.448-0.308-16.622c-5.774-0.111-12.105,4.268-15.962,7.479
			c3.328-11.467,5.919-19.924,6.596-22.119c3.378-2.234,13.578-9.236,15.28-13.433c2.046-5.043-0.384-10.79-5.428-12.836
			c-5.043-2.046-10.79,0.384-12.836,5.427c-1.634,4.027,0.547,15.358,1.492,19.763l-0.604-0.188
			c-0.083,0.268-3.48,11.227-7.848,26.417c-0.16,0.16-0.272,0.274-0.272,0.274s0.056,0.048,0.155,0.131
			c-2.357,8.201-4.987,17.606-7.531,27.217c0.143-4.557-0.135-14.342-4.67-19.444c-6.039-6.794-15.098,1.51-12.833,10.568
			c2.025,8.101,14.305,10.767,16.881,11.24c-3.39,12.932-6.567,26.079-8.657,37.029c-0.305,0.303-0.473,0.478-0.473,0.478
			s0.121,0.104,0.33,0.276c-0.414,2.204-0.784,4.319-1.1,6.316c-2.151,13.623-3.974,26.383-5.581,37.64
			c-1.507,10.552-2.82,19.743-4.087,27.513c-1.878-7.532-5.533-17.669-12.231-22.603c-11.408-8.402-22.529,7.192-16.142,20.269
			c4.888,10.008,19.936,11.513,26.735,11.669c-0.258,1.34-0.516,2.619-0.776,3.834c-1.04,4.854-2.658,18.207-4.262,32.876
			c-2.243-10.8-7.504-28.878-18.57-37.029c-16.32-12.02-32.23,10.289-23.093,28.997c7.672,15.709,32.852,16.777,40.731,16.716
			c-2.165,20.472-4.086,40.784-4.232,42.34l2.364,0.223c0.067-0.711,6.743-71.293,9.385-83.623
			C342.41,311.394,342.7,309.946,342.988,308.43z"/>
	</g>
	<g>
		<path style="fill:#92E3A9;" d="M163.86,233.392c0,0-0.879-8.79,2.637-12.745c3.516-3.955,8.79,0.879,7.471,6.153
			C172.65,232.073,163.86,233.392,163.86,233.392z"/>
		<path style="fill:#92E3A9;" d="M173.959,272.56c0,0-1.37-13.7,4.11-19.864c5.48-6.165,13.7,1.37,11.645,9.59
			C187.658,270.505,173.959,272.56,173.959,272.56z"/>
		<path style="fill:#92E3A9;" d="M176.925,294.761c0,0,1.507-13.685,8.148-18.577c6.641-4.891,13.116,4.187,9.398,11.8
			C190.753,295.598,176.925,294.761,176.925,294.761z"/>
		<path style="fill:#92E3A9;" d="M162.98,306.222c8.1,1.559,15.347,13.265,15.347,13.265s-12.123,6.703-18.755,1.43
			C152.941,315.644,154.881,304.663,162.98,306.222z"/>
		<path style="fill:#92E3A9;" d="M160.3,326.846c11.587,2.23,21.955,18.978,21.955,18.978s-17.343,9.59-26.831,2.046
			C145.938,340.324,148.713,324.615,160.3,326.846z"/>
		<path style="fill:#92E3A9;" d="M179.229,319.674c-0.367-0.008-0.575-0.02-0.575-0.02s0.072-0.653,0.253-1.724
			c-0.928-5.19-1.861-11.718-2.974-19.515c-0.151-1.059-0.307-2.148-0.465-3.25c-3.159,1.499-12.217,5.162-17.624,0.862
			c-6.632-5.273-4.692-16.254,3.408-14.695c5.857,1.127,11.267,7.56,13.814,11.036c-0.714-4.951-1.499-10.271-2.379-15.846
			c-0.148-0.938-0.317-1.92-0.503-2.938c-3.113,2.299-10.739,7.117-16.628,4.181c-7.583-3.78-7.967-14.924,0.28-15.083
			c5.939-0.114,12.538,5.011,15.767,7.889c-1.185-5.868-2.834-12.649-4.587-19.344c-1.894,1.423-6.939,4.723-10.815,2.791
			c-4.865-2.426-5.112-9.576,0.18-9.677c3.849-0.074,8.12,3.275,10.168,5.11c-1.412-5.328-2.868-10.543-4.187-15.142
			c-2.179,1.544-6.74,4.202-10.309,2.423c-4.865-2.425-5.112-9.576,0.18-9.677c3.362-0.064,7.048,2.485,9.293,4.354
			c-1.938-6.676-3.446-11.599-3.84-12.877c-1.967-1.3-7.905-5.377-8.896-7.82c-1.191-2.936,0.224-6.282,3.16-7.473
			c2.936-1.191,6.282,0.224,7.473,3.16c0.951,2.345-0.318,8.941-0.869,11.506l0.352-0.109c0.049,0.156,2.026,6.536,4.569,15.379
			c0.093,0.093,0.158,0.16,0.158,0.16s-0.033,0.028-0.09,0.076c1.372,4.775,2.904,10.25,4.384,15.845
			c-0.083-2.653,0.079-8.349,2.719-11.32c3.516-3.955,8.79,0.879,7.471,6.153c-1.179,4.716-8.328,6.268-9.828,6.544
			c1.974,7.529,3.823,15.183,5.04,21.558c0.177,0.177,0.275,0.278,0.275,0.278s-0.071,0.061-0.192,0.161
			c0.241,1.283,0.457,2.514,0.64,3.677c1.253,7.931,2.313,15.36,3.249,21.914c0.877,6.143,1.642,11.494,2.379,16.018
			c1.094-4.385,3.221-10.287,7.121-13.159c6.641-4.892,13.116,4.187,9.398,11.8c-2.846,5.827-11.606,6.703-15.565,6.794
			c0.15,0.78,0.301,1.525,0.452,2.232c0.605,2.826,1.547,10.6,2.481,19.14c1.306-6.287,4.368-16.813,10.811-21.558
			c9.501-6.998,18.764,5.99,13.445,16.882c-4.467,9.146-19.126,9.767-23.713,9.732c1.26,11.919,2.379,23.744,2.464,24.65
			l-1.376,0.13c-0.039-0.414-3.926-41.506-5.464-48.684C179.566,321.399,179.397,320.556,179.229,319.674z"/>
	</g>
	<g>
		<path style="fill:#92E3A9;" d="M55.898,341.774c0,0-2.308-5.096-1-8.182c1.308-3.086,5.452-1.253,5.73,2.178
			C60.905,339.202,55.898,341.774,55.898,341.774z"/>
		<path style="fill:#92E3A9;" d="M69.893,363.231c0,0-3.598-7.943-1.558-12.752c2.039-4.809,8.498-1.953,8.93,3.395
			C77.697,359.222,69.893,363.231,69.893,363.231z"/>
		<path style="fill:#92E3A9;" d="M76.171,375.952c0,0-1.868-8.517,1.126-12.798c2.994-4.281,8.718-0.145,8.03,5.177
			C84.638,373.652,76.171,375.952,76.171,375.952z"/>
		<path style="fill:#92E3A9;" d="M70.125,385.654c5.176-0.705,11.896,4.851,11.896,4.851s-5.916,6.478-10.964,4.658
			C66.01,393.341,64.949,386.359,70.125,385.654z"/>
		<path style="fill:#92E3A9;" d="M72.695,398.572c7.405-1.009,17.019,6.94,17.019,6.94s-8.464,9.268-15.685,6.663
			C66.808,409.57,65.29,399.582,72.695,398.572z"/>
		<path style="fill:#92E3A9;" d="M82.601,390.434c-0.222,0.07-0.349,0.104-0.349,0.104s-0.089-0.406-0.197-1.086
			c-1.608-2.927-3.491-6.655-5.739-11.108c-0.305-0.604-0.619-1.227-0.937-1.856c-1.592,1.539-6.285,5.573-10.401,4.088
			c-5.048-1.821-6.108-8.803-0.932-9.508c3.743-0.51,8.293,2.254,10.525,3.823c-1.432-2.826-2.98-5.859-4.638-9.027
			c-0.279-0.533-0.579-1.088-0.897-1.661c-1.403,2.01-5.002,6.446-9.131,5.877c-5.316-0.732-7.804-7.341-2.888-9.107
			c3.541-1.271,8.539,0.467,11.059,1.539c-1.9-3.281-4.263-7.016-6.671-10.678c-0.848,1.238-3.207,4.24-5.924,3.866
			c-3.411-0.47-5.007-4.71-1.853-5.843c2.295-0.824,5.536,0.32,7.136,1.006c-1.927-2.911-3.857-5.745-5.58-8.238
			c-0.994,1.368-3.193,3.887-5.695,3.542c-3.411-0.47-5.007-4.71-1.853-5.843c2.004-0.72,4.732,0.063,6.458,0.73
			c-2.515-3.613-4.418-6.262-4.913-6.949c-1.444-0.382-5.833-1.625-6.923-2.89c-1.31-1.521-1.139-3.815,0.382-5.124
			c1.521-1.31,3.815-1.139,5.124,0.382c1.046,1.214,1.62,5.43,1.81,7.08l0.189-0.137c0.061,0.084,2.54,3.512,5.858,8.303
			c0.075,0.037,0.127,0.064,0.127,0.064s-0.014,0.023-0.039,0.064c1.791,2.587,3.819,5.562,5.841,8.62
			c-0.587-1.575-1.644-5.026-0.662-7.343c1.308-3.086,5.452-1.253,5.73,2.178c0.248,3.069-3.727,5.449-4.571,5.918
			c2.71,4.118,5.37,8.336,7.392,11.915c0.142,0.07,0.221,0.111,0.221,0.111s-0.03,0.051-0.083,0.135
			c0.405,0.721,0.783,1.416,1.129,2.077c2.358,4.505,4.5,8.748,6.389,12.491c1.771,3.508,3.314,6.564,4.673,9.129
			c-0.232-2.853-0.151-6.825,1.607-9.339c2.994-4.281,8.719-0.145,8.03,5.177c-0.527,4.073-5.606,6.374-7.963,7.23
			c0.248,0.438,0.489,0.854,0.723,1.248c0.936,1.573,3.076,6.047,5.367,10.982c-0.49-4.037-0.785-10.974,2.12-15.126
			c4.284-6.124,12.473-0.207,11.488,7.406c-0.827,6.393-9.498,9.736-12.257,10.644c3.171,6.896,6.238,13.765,6.472,14.292
			l-0.799,0.357c-0.107-0.24-10.765-24.11-13.142-28.106C83.152,391.401,82.88,390.929,82.601,390.434z"/>
	</g>
	<g>
		<path style="fill:#92E3A9;" d="M446.226,369.343c0,0,3.703-4.194,7.054-4.265c3.351-0.071,3.377,4.46,0.361,6.119
			C450.624,372.857,446.226,369.343,446.226,369.343z"/>
		<path style="fill:#92E3A9;" d="M432.387,390.901c0,0,5.772-6.536,10.994-6.647c5.223-0.111,5.264,6.952,0.562,9.537
			C439.241,396.378,432.387,390.901,432.387,390.901z"/>
		<path style="fill:#92E3A9;" d="M423.356,401.841c0,0,7.004-5.194,12.135-4.217c5.132,0.977,3.704,7.894-1.432,9.446
			C428.922,408.622,423.356,401.841,423.356,401.841z"/>
		<path style="fill:#92E3A9;" d="M412.028,400.301c2.764,4.433,0.45,12.839,0.45,12.839s-8.334-2.742-8.741-8.093
			C403.329,399.697,409.264,395.869,412.028,400.301z"/>
		<path style="fill:#92E3A9;" d="M401.297,407.939c3.955,6.341,0.643,18.368,0.643,18.368s-11.923-3.923-12.505-11.578
			C388.852,407.074,397.342,401.598,401.297,407.939z"/>
		<path style="fill:#92E3A9;" d="M412.779,413.64c-0.154-0.174-0.238-0.276-0.238-0.276s0.334-0.248,0.91-0.625
			c2.011-2.666,4.64-5.911,7.781-9.786c0.426-0.526,0.865-1.068,1.309-1.616c-2.057-0.822-7.658-3.45-7.991-7.813
			c-0.407-5.351,5.527-9.179,8.292-4.746c1.999,3.206,1.342,8.488,0.825,11.168c1.991-2.464,4.124-5.119,6.334-7.929
			c0.372-0.473,0.755-0.974,1.148-1.499c-2.408-0.456-7.93-1.922-9.102-5.921c-1.51-5.149,3.499-10.127,7.124-6.366
			c2.611,2.709,3.073,7.98,3.127,10.719c2.215-3.077,4.653-6.763,7.007-10.461c-1.477-0.266-5.182-1.188-5.954-3.82
			c-0.969-3.304,2.245-6.498,4.571-4.084c1.692,1.755,1.976,5.181,2.006,6.922c1.866-2.95,3.66-5.873,5.228-8.465
			c-1.655-0.347-4.854-1.32-5.565-3.744c-0.969-3.304,2.245-6.498,4.571-4.084c1.478,1.533,1.882,4.342,1.98,6.191
			c2.266-3.775,3.902-6.596,4.326-7.329c-0.243-1.473-0.908-5.986-0.2-7.499c0.85-1.818,3.013-2.602,4.831-1.751
			c1.818,0.85,2.602,3.013,1.751,4.831c-0.679,1.451-4.289,3.703-5.717,4.552l0.202,0.116c-0.052,0.09-2.163,3.756-5.174,8.745
			c-0.003,0.084-0.006,0.142-0.006,0.142s-0.027-0.003-0.074-0.009c-1.626,2.693-3.509,5.763-5.47,8.86
			c1.196-1.181,3.911-3.559,6.428-3.613c3.351-0.071,3.377,4.46,0.361,6.119c-2.698,1.484-6.497-1.168-7.271-1.745
			c-2.646,4.159-5.404,8.314-7.84,11.625c-0.006,0.159-0.011,0.247-0.011,0.247s-0.059-0.007-0.157-0.02
			c-0.492,0.665-0.971,1.295-1.432,1.881c-3.143,3.997-6.136,7.689-8.776,10.947c-2.475,3.053-4.63,5.713-6.413,8.003
			c2.507-1.381,6.164-2.934,9.177-2.361c5.132,0.977,3.704,7.894-1.432,9.446c-3.931,1.188-8.111-2.503-9.858-4.302
			c-0.298,0.406-0.578,0.796-0.842,1.171c-1.052,1.498-4.256,5.284-7.819,9.395c3.482-2.102,9.688-5.212,14.667-4.264
			c7.341,1.398,5.3,11.293-2.049,13.514c-6.171,1.865-12.773-4.675-14.732-6.82c-4.992,5.718-10.001,11.33-10.385,11.76
			l-0.653-0.583c0.175-0.197,17.583-19.699,20.254-23.505C412.123,414.539,412.442,414.098,412.779,413.64z"/>
	</g>
</g>
<g id="Character_3">
	<g>
		<g>
			<g>
				<path style="fill:#CCCCCC;stroke:#263238;stroke-linecap:round;stroke-linejoin:round;stroke-miterlimit:10;" d="
					M417.513,297.493l-2.55,2.551l-3.121,1.508l-2.118,7.057l2.217,0.701l1.491-1.573l1.369,1.483l-1.841,5.232
					c0,0-2.477,0.717-2.501,1.329c-0.024,0.611,1.557,1.898,1.557,1.898l2.909-1.312l7.994-0.906l2.306-1.54l-2.506-13.519
					L417.513,297.493z"/>
				
					<line style="fill:none;stroke:#263238;stroke-linecap:round;stroke-linejoin:round;stroke-miterlimit:10;" x1="414.925" y1="316.366" x2="417.808" y2="311.699"/>
				
					<line style="fill:none;stroke:#263238;stroke-linecap:round;stroke-linejoin:round;stroke-miterlimit:10;" x1="418.747" y1="315.951" x2="420.704" y2="311.371"/>
				
					<line style="fill:none;stroke:#263238;stroke-linecap:round;stroke-linejoin:round;stroke-miterlimit:10;" x1="422.919" y1="315.461" x2="423.583" y2="311.486"/>
			</g>
			<polygon style="fill:#FFFFFF;stroke:#263238;stroke-linecap:round;stroke-linejoin:round;stroke-miterlimit:10;" points="
				411.469,236.452 430.933,267.302 423.809,300.68 416.15,298.995 415.738,267.8 403.488,255.606 			"/>
			<polygon style="fill:#FFFFFF;stroke:#263238;stroke-linecap:round;stroke-linejoin:round;stroke-miterlimit:10;" points="
				396.427,226.196 411.469,236.452 394.794,279.657 366.923,271.486 364.136,246.797 367.41,225.239 381.077,223.652 			"/>
			<path style="fill:#FFFFFF;stroke:#263238;stroke-linecap:round;stroke-linejoin:round;stroke-miterlimit:10;" d="
				M382.831,235.035l2.811,3.044c1.766,1.913,4.875,1.589,6.209-0.647l6.494-10.884l-4.508-4.594l-9.95,0.431l-4.191,2.202
				l-1.934,5.52C376.665,233.237,379.732,236.219,382.831,235.035L382.831,235.035z"/>
			<g>
				<path style="fill:#CCCCCC;stroke:#263238;stroke-linecap:round;stroke-linejoin:round;stroke-miterlimit:10;" d="
					M386.694,193.497c0,0-4.72,3.118-5.31,4.394c-0.59,1.276-0.838,3.485-0.838,3.485l-5.331,2.121l2.304,3.39
					c0,0-2.049,7.671-0.634,8.862c1.415,1.191,6.3,4.126,6.3,4.126l-0.129,9.624c-0.03,2.253,2.491,3.606,4.351,2.335l8.471-5.787
					l2.555-5.907c0,0,8.496-7.03,8.391-11.309c-0.105-4.279-2.172-11.014-8.422-14.502c-6.25-3.488-11.452-1.903-11.452-1.903
					L386.694,193.497z"/>
				<path style="fill:#263238;stroke:#263238;stroke-linecap:round;stroke-linejoin:round;stroke-miterlimit:10;" d="
					M389.529,193.131c0,0,3.498,0.695,0.202,8.965c-3.296,8.27-6.532,14.569-1.629,19.84c4.902,5.272,8.282,8.49,5.934,12.171
					c-2.348,3.682-9.159,2.394-7.178,10.721c1.981,8.327,8.596,9.972,11.452,5.582s1.384-11.956,1.7-13.546
					c0.316-1.59,1.142-2.418,1.142-2.418l1.908,0.379l11.402,6.013c0,0-0.142-1.13,0.612-8.253
					c0.754-7.122-5.669-8.068-4.405-14.428c1.264-6.36,8.197-4.652,5.706-13.741c-2.491-9.09-17.123-15.303-17.123-15.303
					s-5.926-10.103-12.596-4.817c-6.67,5.286-2.229,10.678-2.229,10.678L389.529,193.131z"/>
				<path style="fill:#263238;" d="M383.194,202.154c-0.196,0.814,0.005,1.561,0.45,1.668c0.444,0.107,0.963-0.467,1.159-1.281
					c0.196-0.814-0.005-1.561-0.449-1.668C383.909,200.767,383.39,201.34,383.194,202.154z"/>
				<path style="fill:none;stroke:#263238;stroke-linecap:round;stroke-linejoin:round;stroke-miterlimit:10;" d="M387.624,200.242
					c0,0-1.299-2.408-4.033-1.648"/>
			</g>
			<g>
				<path style="fill:#CCCCCC;stroke:#263238;stroke-linecap:round;stroke-linejoin:round;stroke-miterlimit:10;" d="
					M329.326,225.118l-0.373-4.408c0,0,0.389-2.867,0.038-4.391c-0.351-1.524-0.971-3.196-1.47-4.451
					c-0.499-1.255-1.157-1.968-1.891-0.762c-0.734,1.206-0.416,3.552-0.416,3.552s-0.455-2.352-1.239-3.344
					c-0.784-0.992-3.361-1.781-5.937-2.57c-2.577-0.789-1.398,0.631-1.014,1.332c0.384,0.702,2.807,1.896,2.807,1.896
					s-3.788-1.386-4.874-1.704c-1.085-0.318-2.785,0.987-1.579,1.722c1.206,0.734,3.783,1.523,3.783,1.523s-2.911,0.708-4.035,1.349
					c-1.124,0.642-0.625,1.897,0.061,1.924c0.685,0.027,2.757-0.302,2.757-0.302s-1.842,1.437-1.463,2.275
					c0.378,0.839,3.854-0.258,3.854-0.258s0.461,2.215,2.051,3.651c1.59,1.436,3.608,2.477,3.608,2.477l3.147,3.694L329.326,225.118
					z"/>
				
					<line style="fill:#CCCCCC;stroke:#263238;stroke-linecap:round;stroke-linejoin:round;stroke-miterlimit:10;" x1="319.83" y1="211.973" x2="318.668" y2="217.006"/>
				<path style="fill:#CCCCCC;stroke:#263238;stroke-linecap:round;stroke-linejoin:round;stroke-miterlimit:10;" d="
					M325.214,214.659l0.209,1.656c0,0-2.253,1.42-1.929,3.629"/>
			</g>
			<polygon style="fill:#FFFFFF;stroke:#263238;stroke-linecap:round;stroke-linejoin:round;stroke-miterlimit:10;" points="
				367.41,225.239 345.587,241.828 329.365,224.159 324.968,228.023 341.667,257.123 364.408,244.614 			"/>
			<path style="fill:#263238;stroke:#263238;stroke-linecap:round;stroke-linejoin:round;stroke-miterlimit:10;" d="
				M399.983,334.331l0.13-25.633c0.386-16.698-4.534-28.035-5.361-28.781c-0.275-0.248-0.459-0.26-0.459-0.26l-27.871-8.171
				c0,0-3.569,10.156-6.423,12.014c-31.5,20.5-38.78,30.485-38.5,31c8.242,15.169,34.862,40.673,33.963,38.895l6.742-2.274
				L341.5,317l30.425-11.992l6.02,29.134l30.595,56.973l8.336-2.993L399.983,334.331z"/>
			<path style="fill:#FFFFFF;stroke:#263238;stroke-linecap:round;stroke-linejoin:round;stroke-miterlimit:10;" d="
				M355.463,353.395l-3.187,6.329c0,0-3.172,1.047-4.367,1.587c-1.195,0.539-1.789,0.711-2.414,1.664
				c-0.625,0.953-0.679,2.32-0.679,2.32l15.821,0.631c0,0,4.89-4.891,7.132-7.15c2.242-2.258-5.564-7.656-5.564-7.656
				L355.463,353.395z"/>
			<path style="fill:#FFFFFF;stroke:#263238;stroke-linecap:round;stroke-linejoin:round;stroke-miterlimit:10;" d="
				M416.875,388.121c0,0-0.156,3.906-0.296,7.422c-0.14,3.516-4.46,8.821-7.077,10.673c-2.617,1.852-4.976,2.149-4.196-2.71
				c0.78-4.86,3.233-12.391,3.233-12.391S416.102,387.895,416.875,388.121z"/>
		</g>
	</g>
</g>
<g id="Character_2">
	<g>
		<g>
			<g>
				
					<line style="fill:none;stroke:#263238;stroke-linecap:round;stroke-linejoin:round;stroke-miterlimit:10;" x1="234.193" y1="45.226" x2="216.389" y2="57.461"/>
				
					<line style="fill:none;stroke:#263238;stroke-linecap:round;stroke-linejoin:round;stroke-miterlimit:10;" x1="236.673" y1="43.522" x2="235.479" y2="44.342"/>
				
					<line style="fill:none;stroke:#263238;stroke-linecap:round;stroke-linejoin:round;stroke-miterlimit:10;" x1="209.969" y1="31.828" x2="205.96" y2="31.277"/>
				
					<line style="fill:none;stroke:#263238;stroke-linecap:round;stroke-linejoin:round;stroke-miterlimit:10;" x1="235.868" y1="35.385" x2="212.518" y2="32.178"/>
				
					<line style="fill:none;stroke:#263238;stroke-linecap:round;stroke-linejoin:round;stroke-miterlimit:10;" x1="240.12" y1="19.657" x2="232.405" y2="11.795"/>
				
					<line style="fill:none;stroke:#263238;stroke-linecap:round;stroke-linejoin:round;stroke-miterlimit:10;" x1="243.307" y1="22.906" x2="241.518" y2="21.083"/>
				
					<line style="fill:none;stroke:#263238;stroke-linecap:round;stroke-linejoin:round;stroke-miterlimit:10;" x1="263.984" y1="23.031" x2="272.927" y2="13.891"/>
				
					<line style="fill:none;stroke:#263238;stroke-linecap:round;stroke-linejoin:round;stroke-miterlimit:10;" x1="262.272" y1="24.781" x2="263.128" y2="23.906"/>
				
					<line style="fill:none;stroke:#263238;stroke-linecap:round;stroke-linejoin:round;stroke-miterlimit:10;" x1="283.728" y1="35.872" x2="301.904" y2="33.852"/>
				
					<line style="fill:none;stroke:#263238;stroke-linecap:round;stroke-linejoin:round;stroke-miterlimit:10;" x1="267.132" y1="37.716" x2="281.542" y2="36.115"/>
				
					<line style="fill:none;stroke:#263238;stroke-linecap:round;stroke-linejoin:round;stroke-miterlimit:10;" x1="279.49" y1="53.671" x2="287.738" y2="62.185"/>
				
					<line style="fill:none;stroke:#263238;stroke-linecap:round;stroke-linejoin:round;stroke-miterlimit:10;" x1="267.776" y1="41.579" x2="277.888" y2="52.017"/>
			</g>
			<g>
				
					<rect x="251.427" y="41.087" style="fill:#92E3A9;stroke:#263238;stroke-linecap:round;stroke-linejoin:round;stroke-miterlimit:10;" width="4.607" height="13.278"/>
				<polygon style="fill:#263238;stroke:#263238;stroke-linecap:round;stroke-linejoin:round;stroke-miterlimit:10;" points="
					259.422,53.281 259.422,51.384 248.04,51.384 248.04,53.281 242.62,53.281 242.62,60.869 264.841,60.869 264.841,53.281 				"/>
				<g>
					<polygon style="fill:#92E3A9;stroke:#263238;stroke-linecap:round;stroke-linejoin:round;stroke-miterlimit:10;" points="
						253.731,16.426 259.119,27.345 271.169,29.096 262.45,37.595 264.508,49.595 253.731,43.929 242.953,49.595 245.012,37.595 
						236.293,29.096 248.342,27.345 					"/>
					<polyline style="fill:#92E3A9;stroke:#263238;stroke-linecap:round;stroke-linejoin:round;stroke-miterlimit:10;" points="
						238.639,30.234 253.731,34.158 267.012,30.838 					"/>
					
						<line style="fill:#92E3A9;stroke:#263238;stroke-linecap:round;stroke-linejoin:round;stroke-miterlimit:10;" x1="254.033" y1="21.179" x2="254.033" y2="30.838"/>
					<polyline style="fill:#92E3A9;stroke:#263238;stroke-linecap:round;stroke-linejoin:round;stroke-miterlimit:10;" points="
						244.676,47.741 253.429,36.271 253.429,41.1 					"/>
					
						<line style="fill:#92E3A9;stroke:#263238;stroke-linecap:round;stroke-linejoin:round;stroke-miterlimit:10;" x1="264.508" y1="49.595" x2="255.542" y2="36.271"/>
				</g>
			</g>
		</g>
		<g>
			<path style="fill:#263238;stroke:#263238;stroke-linecap:round;stroke-linejoin:round;stroke-miterlimit:10;" d="
				M221.521,183.922c0,0,14.057,5.851,28.091,6.52c14.035,0.668,39.214-6.52,39.214-6.52l-16.714-21.55H233.35L221.521,183.922z"/>
			<path style="fill:#FFFFFF;stroke:#263238;stroke-linecap:round;stroke-linejoin:round;stroke-miterlimit:10;" d="
				M288.112,292.244c-0.513-1.54-4.879-13.095-4.879-13.095s-2.568-19.258-2.568-28.245s-3.081-14.379-3.081-14.379l-3.576-64.318
				l-2.33-8.137h-5.132l-14.254,0.129l-14.254-0.129h-1.794l-5.865,11.154l-3.378,61.3c0,0-3.081,5.392-3.081,14.379
				s-2.568,28.245-2.568,28.245s-4.365,11.555-4.879,13.095c-0.514,1.541-4.365,5.135-4.365,6.419c0,1.284,1.027,2.054,1.027,2.054
				h13.865c0,0,0.77-0.257,1.284-2.824c0.514-2.568,0.514-5.135,0.514-6.676c0-1.541,1.541-14.379,1.541-14.379l19.771-82.324h0.514
				h3.338h0.514l19.771,82.324c0,0,1.54,12.838,1.54,14.379c0,1.541,0,4.108,0.514,6.676c0.514,2.568,1.284,2.824,1.284,2.824
				h13.866c0,0,1.027-0.77,1.027-2.054C292.478,297.38,288.626,293.785,288.112,292.244z"/>
			<path style="fill:#263238;stroke:#263238;stroke-linecap:round;stroke-linejoin:round;stroke-miterlimit:10;" d="
				M283.234,279.149c0,0-2.568-19.258-2.568-28.245s-3.081-14.379-3.081-14.379l-3.576-64.318l-2.33-8.137h-5.132l-14.254,0.129
				l-14.254-0.129h-1.794l-5.865,11.154l-3.378,61.3c0,0-3.081,5.392-3.081,14.379s-2.568,28.245-2.568,28.245
				s-0.035,0.093-0.097,0.257h8.78c0.179-1.525,0.304-2.568,0.304-2.568l19.771-82.324h0.514h3.338h0.514l19.771,82.324
				c0,0,0.125,1.043,0.304,2.568h8.78C283.269,279.242,283.234,279.149,283.234,279.149z"/>
			<path style="fill:#92E3A9;stroke:#263238;stroke-linecap:round;stroke-linejoin:round;stroke-miterlimit:10;" d="
				M229.713,282.189l-5.022,11.853h-9.367c-1.309,1.671-3.215,3.718-3.215,4.622c0,1.284,1.027,2.054,1.027,2.054h13.865
				c0,0,0.77-0.257,1.284-2.824c0.514-2.568,0.514-5.135,0.514-6.676C228.799,290.351,229.286,285.909,229.713,282.189z"/>
			<path style="fill:#92E3A9;stroke:#263238;stroke-linecap:round;stroke-linejoin:round;stroke-miterlimit:10;" d="
				M274.874,282.189l5.022,11.853h9.367c1.309,1.671,3.215,3.718,3.215,4.622c0,1.284-1.027,2.054-1.027,2.054h-13.866
				c0,0-0.77-0.257-1.284-2.824c-0.514-2.568-0.514-5.135-0.514-6.676C275.788,290.351,275.3,285.909,274.874,282.189z"/>
			<path style="fill:#263238;stroke:#263238;stroke-linecap:round;stroke-linejoin:round;stroke-miterlimit:10;" d="M250.863,80.634
				c0,0-4.564-2.391-8.042,2.391c-3.478,4.782-1.087,9.129-1.087,10.433c0,1.304-5.216,5.651-3.695,7.607
				c1.521,1.956,3.912,3.043,3.695,3.912c-0.217,0.869-6.303-0.435-5.868,1.739c0.435,2.173,0.869,5.651,8.694,11.519
				c7.825,5.868,19.127,1.087,22.17-2.174c3.043-3.26,5.651-6.52,5.216-8.477c-0.435-1.956-3.477-1.304-3.477-2.174
				s3.26-3.912,3.26-5.651c0-1.739-3.478-3.912-3.695-4.999c-0.217-1.087,1.739-2.608,1.739-4.347s-4.347-3.912-4.347-5.434
				c0-1.521,3.26-4.13-1.739-7.607S251.949,76.505,250.863,80.634z"/>
			<g>
				<path style="fill:#FFFFFF;stroke:#263238;stroke-linecap:round;stroke-linejoin:round;stroke-miterlimit:10;" d="
					M249.486,107.658l-1.739,8.839c0,0-4.057-1.739-5.216-2.174c-1.159-0.435-4.492,49.747-4.492,49.747h32.312l-1.739-49.458
					l-7.245,1.884l-2.174-8.984L249.486,107.658z"/>
				<path style="fill:#FFFFFF;stroke:#263238;stroke-linecap:round;stroke-linejoin:round;stroke-miterlimit:10;" d="
					M261.802,130.987l1.276-14.935l-1.711,0.445l-2.174-8.984l-9.708,0.145l-1.739,8.839c0,0-0.614-0.263-1.431-0.61l1.576,15.099
					H261.802z"/>
				<path style="fill:#263238;stroke:#263238;stroke-linecap:round;stroke-linejoin:round;stroke-miterlimit:10;" d="
					M248.403,109.451c0,0,5.809,5.567,7.02,5.567c1.21,0,4.841-5.083,4.841-5.083l-0.484-1.694l-11.377-0.242V109.451z"/>
			</g>
			<g>
				<path style="fill:#FFFFFF;stroke:#263238;stroke-linecap:round;stroke-linejoin:round;stroke-miterlimit:10;" d="
					M229.653,73.961l10.037-10.415l-2.855-7.793c0,0,2.835-5.277,3.085-5.875c0.25-0.598,1.288-2.412,1.288-2.412
					s1.59-0.108,1.708,1.626c0.118,1.735,0.335,4.915,0.105,5.802c-0.23,0.887,2.284,5.799,1.275,8.046
					c-1.009,2.247-11.243,16.162-11.243,16.162L229.653,73.961z"/>
				<path style="fill:none;stroke:#263238;stroke-linecap:round;stroke-linejoin:round;stroke-miterlimit:10;" d="M242.88,50.693
					c0,0-3.174,4.574-3.144,5.007c0.03,0.434,0.223,1.147,0.223,1.147"/>
				<polyline style="fill:none;stroke:#263238;stroke-linecap:round;stroke-linejoin:round;stroke-miterlimit:10;" points="
					242.258,47.976 238.037,54.218 238.03,56.252 				"/>
			</g>
			<g>
				<path style="fill:#92E3A9;stroke:#263238;stroke-linecap:round;stroke-linejoin:round;stroke-miterlimit:10;" d="
					M245.429,115.048c0,0-1.014,26.709-2.463,36.996c-1.449,10.288-3.188,16.229-6.665,21.445
					c-3.478,5.216-14.78,10.433-14.78,10.433s8.114-27.965,9.708-35.645c1.594-7.68,1.594-23.811,1.594-23.811
					s-7.245-5.361-13.041-13.62c-5.796-8.259-10.493-16.787-10.245-18c0.248-1.213,23.026-23.14,23.026-23.14l4.666,6.303
					l-12.638,19.313c0,0,11.854,13.785,12.723,14.509C238.184,110.556,241.517,110.991,245.429,115.048z"/>
				<path style="fill:#92E3A9;stroke:#263238;stroke-linecap:round;stroke-linejoin:round;stroke-miterlimit:10;" d="
					M244.743,114.369l-0.039,0.1c0,0-4.782,8.839-4.782,17.098c0,4.752,1.438,19.976,2.66,23.032
					c0.13-0.824,0.258-1.668,0.383-2.554c1.449-10.288,2.463-36.996,2.463-36.996C245.198,114.808,244.97,114.584,244.743,114.369z"
					/>
			</g>
			<g>
				<path style="fill:#FFFFFF;stroke:#263238;stroke-linecap:round;stroke-linejoin:round;stroke-miterlimit:10;" d="
					M279.518,73.752l-10.722-9.708l2.318-7.969c0,0-3.188-5.071-3.478-5.651s-1.449-2.318-1.449-2.318s-1.594,0-1.594,1.739
					s0,4.927,0.29,5.796c0.29,0.869-1.884,5.941-0.725,8.114c1.159,2.174,12.316,15.359,12.316,15.359L279.518,73.752z"/>
				<path style="fill:none;stroke:#263238;stroke-linecap:round;stroke-linejoin:round;stroke-miterlimit:10;" d="M264.738,51.437
					c0,0,3.477,4.347,3.477,4.782s-0.145,1.159-0.145,1.159"/>
				<polyline style="fill:none;stroke:#263238;stroke-linecap:round;stroke-linejoin:round;stroke-miterlimit:10;" points="
					265.173,48.684 269.809,54.625 269.954,56.654 				"/>
			</g>
			<g>
				<path style="fill:#92E3A9;stroke:#263238;stroke-linecap:round;stroke-linejoin:round;stroke-miterlimit:10;" d="
					M264.918,115.048c0,0,1.014,26.709,2.463,36.996c1.449,10.288,3.188,16.229,6.665,21.445c3.478,5.216,14.78,10.433,14.78,10.433
					s-8.114-27.965-9.708-35.645c-1.594-7.68-1.594-23.811-1.594-23.811s7.245-5.361,13.041-13.62s12.898-17.925,12.464-19.084
					c-0.435-1.159-26.001-21.356-26.001-21.356l-3.622,6.955l12.523,18.995c0,0-12.027,12.751-12.896,13.476
					C272.163,110.556,268.83,110.991,264.918,115.048z"/>
				<path style="fill:none;stroke:#263238;stroke-linecap:round;stroke-linejoin:round;stroke-miterlimit:10;" d="M238.004,115.188
					c-1.215,4.861-5.181,9.278-5.181,9.278s2.447-5.632,1.84-10.493"/>
				<path style="fill:none;stroke:#263238;stroke-linecap:round;stroke-linejoin:round;stroke-miterlimit:10;" d="M270.812,113.973
					c2.126,4.557,6.712,10.493,6.712,10.493s-3.066-11.1-3.066-12.619"/>
				<path style="fill:#92E3A9;stroke:#263238;stroke-linecap:round;stroke-linejoin:round;stroke-miterlimit:10;" d="
					M265.603,114.369l0.039,0.1c0,0,4.782,8.839,4.782,17.098c0,4.752-1.438,19.976-2.66,23.032
					c-0.13-0.824-0.258-1.668-0.383-2.554c-1.449-10.288-2.463-36.996-2.463-36.996
					C265.149,114.808,265.377,114.584,265.603,114.369z"/>
			</g>
			<g>
				<path style="fill:#FFFFFF;stroke:#263238;stroke-linecap:round;stroke-linejoin:round;stroke-miterlimit:10;" d="
					M245.284,98.819c0,0-2.898-4.202-3.333-0.58s3.043,6.231,3.043,6.231L245.284,98.819z"/>
				<path style="fill:#FFFFFF;stroke:#263238;stroke-linecap:round;stroke-linejoin:round;stroke-miterlimit:10;" d="M264.845,97.95
					c0,0,2.463-2.463,3.188,0.435c0.725,2.898-3.043,5.506-3.043,5.506L264.845,97.95z"/>
				<g>
					<path style="fill:#FFFFFF;stroke:#263238;stroke-linecap:round;stroke-linejoin:round;stroke-miterlimit:10;" d="
						M251.732,84.547c0,0-0.652,3.695-3.26,4.564c-2.608,0.869-3.478,2.174-3.478,2.174s-0.435,12.606,0.435,13.91
						s6.593,6.81,9.418,6.81s9.636-5.071,9.853-6.376c0.217-1.304-0.145-13.476-0.362-14.345c-0.217-0.869-3.043-2.174-5.434-2.174
						c-2.391,0-4.347-2.608-4.782-3.478C253.688,84.764,251.732,84.547,251.732,84.547z"/>
					<path style="fill:none;stroke:#263238;stroke-linecap:round;stroke-linejoin:round;stroke-miterlimit:10;" d="M253.612,94.911
						c0,0,1.066,0.872,2.035,0.872s1.55-0.969,1.55-0.969"/>
					<path style="fill:none;stroke:#263238;stroke-linecap:round;stroke-linejoin:round;stroke-miterlimit:10;" d="M249.296,90.759
						c0,0,0.842-2.421,3.263-1.053"/>
					<path style="fill:none;stroke:#263238;stroke-linecap:round;stroke-linejoin:round;stroke-miterlimit:10;" d="M257.401,89.812
						c0,0,2.316-1.789,4.105,1.263"/>
					<path style="fill:none;stroke:#263238;stroke-linecap:round;stroke-linejoin:round;stroke-miterlimit:10;" d="M251.563,99.004
						c0,0,4.999,3.043,8.259-1.087"/>
					<path style="fill:#263238;" d="M251.659,91.713c0,0.6-0.341,1.087-0.761,1.087c-0.42,0-0.761-0.487-0.761-1.087
						c0-0.6,0.341-1.087,0.761-1.087C251.319,90.626,251.659,91.113,251.659,91.713z"/>
					<path style="fill:#263238;" d="M259.702,91.81c0,0.6-0.341,1.087-0.761,1.087c-0.42,0-0.761-0.487-0.761-1.087
						c0-0.6,0.341-1.087,0.761-1.087C259.361,90.723,259.702,91.21,259.702,91.81z"/>
				</g>
			</g>
		</g>
	</g>
</g>
<g id="Character_1">
	<g>
		<polygon style="fill:#FFFFFF;stroke:#263238;stroke-linecap:round;stroke-linejoin:round;stroke-miterlimit:10;" points="
			106.653,226.196 91.61,236.452 103.569,287.295 139.999,280.601 140.359,227.335 122.002,223.652 		"/>
		<polygon style="fill:#92E3A9;stroke:#263238;stroke-linecap:round;stroke-linejoin:round;stroke-miterlimit:10;" points="
			115.037,235.794 119.697,241.955 120.463,275.034 126.346,284.18 130.756,270.209 121.9,241.867 124.105,234.881 119.225,230.109 
					"/>
		<polygon style="fill:#FFFFFF;stroke:#263238;stroke-linecap:round;stroke-linejoin:round;stroke-miterlimit:10;" points="
			120.249,235.035 113.901,241.91 104.735,226.548 109.243,221.954 119.193,222.385 127.644,226.739 128.094,238.033 		"/>
		<g>
			<path style="fill:#CCCCCC;stroke:#263238;stroke-linecap:round;stroke-linejoin:round;stroke-miterlimit:10;" d="
				M124.673,193.747c0,0,4.021,3.978,4.352,5.345c0.33,1.366,0.143,3.581,0.143,3.581l4.815,3.119l-2.92,2.876
				c0,0,2.798,7.89,1.178,8.782c-1.62,0.892-9.267,2.853-9.267,2.853l-2.724,14.732l-10.929-11.153l-1.354-6.292
				c0,0-6.963-8.552-6.026-12.728c0.937-4.176,4.277-10.379,11.087-12.582c6.81-2.203,7.209-1.37,7.209-1.37L124.673,193.747z"/>
			<path style="fill:#263238;stroke:#263238;stroke-linecap:round;stroke-linejoin:round;stroke-miterlimit:10;" d="
				M111.305,211.387c0,0,4.099-0.991,4.022-2.919c-0.077-1.928-2.897-3.471-0.749-4.937c2.149-1.465,4.331-2.104,4.287-3.206
				s-2.016-2.127-0.683-3.284c1.334-1.157,6.491-3.294,6.491-3.294s-2.17-5.984-10.181-6.216
				c-8.011-0.232-15.34,9.716-14.812,16.041c0.528,6.325,7.48,14.601,9.155,15.086C110.51,219.144,111.305,211.387,111.305,211.387z
				"/>
			<path style="fill:#CCCCCC;stroke:#263238;stroke-linecap:round;stroke-linejoin:round;stroke-miterlimit:10;" d="
				M113.012,212.698c0,0-2.633-3.758-4.716-0.64c-2.083,3.118,2.732,6.237,5.211,6.138c2.479-0.099,2.986-1.223,2.986-1.223"/>
			<path style="fill:#263238;" d="M126.418,202.921c0.033,0.837-0.31,1.53-0.766,1.548c-0.456,0.018-0.854-0.645-0.887-1.482
				c-0.033-0.837,0.31-1.53,0.766-1.548C125.988,201.421,126.385,202.084,126.418,202.921z"/>
			<path style="fill:none;stroke:#263238;stroke-linecap:round;stroke-linejoin:round;stroke-miterlimit:10;" d="M122.446,200.182
				c0,0,2.37-2.854,4.904-1.575"/>
		</g>
		<g>
			<path style="fill:#CCCCCC;stroke:#263238;stroke-linecap:round;stroke-linejoin:round;stroke-miterlimit:10;" d="M85.566,297.493
				l2.55,2.551l3.121,1.508l2.118,7.057l-2.217,0.701l-1.491-1.573l-1.369,1.483l1.841,5.232c0,0,2.477,0.717,2.502,1.329
				c0.024,0.611-1.557,1.898-1.557,1.898l-2.909-1.312l-7.994-0.906l-2.306-1.54l2.506-13.519L85.566,297.493z"/>
			
				<line style="fill:none;stroke:#263238;stroke-linecap:round;stroke-linejoin:round;stroke-miterlimit:10;" x1="88.155" y1="316.366" x2="85.272" y2="311.699"/>
			
				<line style="fill:none;stroke:#263238;stroke-linecap:round;stroke-linejoin:round;stroke-miterlimit:10;" x1="84.332" y1="315.951" x2="82.375" y2="311.371"/>
			
				<line style="fill:none;stroke:#263238;stroke-linecap:round;stroke-linejoin:round;stroke-miterlimit:10;" x1="80.161" y1="315.461" x2="79.496" y2="311.486"/>
		</g>
		<polygon style="fill:#FFFFFF;stroke:#263238;stroke-linecap:round;stroke-linejoin:round;stroke-miterlimit:10;" points="
			91.61,236.452 72.146,267.302 79.271,300.68 86.929,298.995 87.341,267.8 97.062,255.549 		"/>
		<g>
			<path style="fill:#CCCCCC;stroke:#263238;stroke-linecap:round;stroke-linejoin:round;stroke-miterlimit:10;" d="
				M178.567,219.423l0.373-4.408c0,0-0.389-2.867-0.038-4.391c0.351-1.524,0.971-3.196,1.47-4.451
				c0.499-1.255,1.157-1.968,1.891-0.762c0.734,1.206,0.416,3.552,0.416,3.552s0.455-2.352,1.239-3.344
				c0.784-0.992,3.361-1.781,5.937-2.57c2.577-0.789,1.398,0.631,1.014,1.332c-0.384,0.702-2.807,1.896-2.807,1.896
				s3.788-1.386,4.874-1.704s2.785,0.987,1.579,1.722c-1.206,0.734-3.783,1.523-3.783,1.523s2.911,0.708,4.035,1.349
				c1.124,0.642,0.625,1.897-0.06,1.924c-0.685,0.027-2.757-0.302-2.757-0.302s1.842,1.437,1.463,2.275
				c-0.378,0.839-3.854-0.258-3.854-0.258s-0.461,2.215-2.051,3.651c-1.59,1.436-3.608,2.477-3.608,2.477l-3.147,3.694
				L178.567,219.423z"/>
			
				<line style="fill:#CCCCCC;stroke:#263238;stroke-linecap:round;stroke-linejoin:round;stroke-miterlimit:10;" x1="188.064" y1="206.279" x2="189.226" y2="211.311"/>
			<path style="fill:#CCCCCC;stroke:#263238;stroke-linecap:round;stroke-linejoin:round;stroke-miterlimit:10;" d="M182.68,208.964
				l-0.209,1.656c0,0,2.253,1.42,1.929,3.629"/>
		</g>
		<polygon style="fill:#FFFFFF;stroke:#263238;stroke-linecap:round;stroke-linejoin:round;stroke-miterlimit:10;" points="
			140.359,227.335 157.492,241.828 178.529,218.464 182.926,222.328 161.412,257.123 140.389,248.855 		"/>
		<path style="fill:#263238;stroke:#263238;stroke-linecap:round;stroke-linejoin:round;stroke-miterlimit:10;" d="M103.569,287.295
			l2.611,47.406l-19.977,53.42l8.336,2.993l30.595-56.973l4.465-25.414l27.375,4.582l-16.1,37.811l6.742,2.275
			c0,0,33.953-51.238,34.539-51.262c0.586-0.023-40.967-16.756-40.967-16.756l-1.189-4.776L103.569,287.295z"/>
		<path style="fill:#FFFFFF;stroke:#263238;stroke-linecap:round;stroke-linejoin:round;stroke-miterlimit:10;" d="M147.616,353.395
			l3.187,6.329c0,0,3.172,1.047,4.367,1.587c1.195,0.539,1.789,0.711,2.414,1.664c0.625,0.953,0.679,2.32,0.679,2.32l-15.821,0.631
			c0,0-4.89-4.891-7.132-7.15c-2.242-2.258,5.564-7.656,5.564-7.656L147.616,353.395z"/>
		<path style="fill:#FFFFFF;stroke:#263238;stroke-linecap:round;stroke-linejoin:round;stroke-miterlimit:10;" d="M86.204,388.121
			c0,0,0.156,3.906,0.296,7.422c0.14,3.516,4.46,8.821,7.077,10.673c2.617,1.852,4.976,2.149,4.196-2.71
			c-0.781-4.86-3.233-12.391-3.233-12.391S86.977,387.895,86.204,388.121z"/>
	</g>
</g>
<g id="Stairs">
	<g>
		<g>
			
				<rect x="193.265" y="298.922" style="fill:#DBDBDB;stroke:#263238;stroke-linecap:round;stroke-linejoin:round;stroke-miterlimit:10;" width="115.629" height="66.074"/>
			
				<rect x="125.453" y="363.257" style="fill:#ADADAD;stroke:#263238;stroke-linecap:round;stroke-linejoin:round;stroke-miterlimit:10;" width="251.254" height="66.074"/>
			
				<rect x="51.188" y="408.322" style="fill:#919191;stroke:#263238;stroke-linecap:round;stroke-linejoin:round;stroke-miterlimit:10;" width="399.784" height="66.074"/>
		</g>
	</g>
</g>
<g id="Stars">
	<g>
		<g>
			<polygon style="fill:#92E3A9;stroke:#263238;stroke-linecap:round;stroke-linejoin:round;stroke-miterlimit:10;" points="
				251.123,306.221 256.511,317.14 268.56,318.891 259.841,327.39 261.9,339.39 251.123,333.724 240.345,339.39 242.404,327.39 
				233.685,318.891 245.734,317.14 			"/>
		</g>
	</g>
	<g>
		<g>
			<polygon style="fill:#92E3A9;stroke:#263238;stroke-linecap:round;stroke-linejoin:round;stroke-miterlimit:10;" points="
				160.669,366.055 166.058,376.973 178.107,378.724 169.388,387.223 171.446,399.224 160.669,393.558 149.892,399.224 
				151.95,387.223 143.231,378.724 155.28,376.973 			"/>
		</g>
	</g>
	<g>
		<g>
			<polygon style="fill:#92E3A9;stroke:#263238;stroke-linecap:round;stroke-linejoin:round;stroke-miterlimit:10;" points="
				343.336,366.055 348.725,376.973 360.774,378.724 352.055,387.223 354.113,399.224 343.336,393.558 332.559,399.224 
				334.617,387.223 325.898,378.724 337.947,376.973 			"/>
		</g>
	</g>
</g>
<g id="Floor_1_">
	
		<line style="fill:none;stroke:#263238;stroke-linecap:round;stroke-linejoin:round;stroke-miterlimit:10;" x1="21.154" y1="474.396" x2="482.846" y2="474.396"/>
</g>
</svg>
