<?xml version="1.0" encoding="utf-8"?>
<!-- Generator: Adobe Illustrator 27.5.0, SVG Export Plug-In . SVG Version: 6.00 Build 0)  -->
<svg version="1.1" xmlns="http://www.w3.org/2000/svg" xmlns:xlink="http://www.w3.org/1999/xlink" x="0px" y="0px"
	 viewBox="0 0 500 500" style="enable-background:new 0 0 500 500;" xml:space="preserve">
<g id="Background_Simple">
	<g>
		<path style="fill:#92E3A9;" d="M461,208.154c0,0-64-156.116-181-186.262S113.929,83.926,96,147.861
			C78.071,211.796,12,296.44,18,354.58c5.702,55.255,54.131,81.394,99.361,92.608c57.488,14.253,122.815,15.335,180.52,3.454
			c13.729-2.827,27.196-6.624,40.565-10.982c27.115-8.842,53.724-15.691,81.186-23.016c52.241-13.936,72.942-70.048,67.046-123.742
			C483.359,262.688,472.285,235.653,461,208.154z"/>
		<path style="opacity:0.7;fill:#FFFFFF;" d="M461,208.154c0,0-64-156.116-181-186.262S113.929,83.926,96,147.861
			C78.071,211.796,12,296.44,18,354.58c5.702,55.255,54.131,81.394,99.361,92.608c57.488,14.253,122.815,15.335,180.52,3.454
			c13.729-2.827,27.196-6.624,40.565-10.982c27.115-8.842,53.724-15.691,81.186-23.016c52.241-13.936,72.942-70.048,67.046-123.742
			C483.359,262.688,472.285,235.653,461,208.154z"/>
	</g>
</g>
<g id="Window">
	<g>
		
			<rect x="240.254" y="37.213" style="fill:none;stroke:#263238;stroke-linecap:round;stroke-linejoin:round;stroke-miterlimit:10;" width="185.499" height="256.845"/>
		
			<line style="fill:none;stroke:#263238;stroke-linecap:round;stroke-linejoin:round;stroke-miterlimit:10;" x1="333.003" y1="37.364" x2="333.003" y2="294.95"/>
		
			<line style="fill:none;stroke:#263238;stroke-linecap:round;stroke-linejoin:round;stroke-miterlimit:10;" x1="425.909" y1="166.157" x2="240.097" y2="166.157"/>
		
			<line style="fill:none;stroke:#263238;stroke-linecap:round;stroke-linejoin:round;stroke-miterlimit:10;" x1="425.909" y1="101.657" x2="240.097" y2="101.657"/>
		
			<line style="fill:none;stroke:#263238;stroke-linecap:round;stroke-linejoin:round;stroke-miterlimit:10;" x1="425.909" y1="230.657" x2="240.097" y2="230.657"/>
		<g>
			
				<line style="fill:none;stroke:#263238;stroke-linecap:round;stroke-linejoin:round;stroke-miterlimit:10;" x1="392.098" y1="131.43" x2="374.02" y2="148.813"/>
			
				<line style="fill:none;stroke:#263238;stroke-linecap:round;stroke-linejoin:round;stroke-miterlimit:10;" x1="418.991" y1="105.571" x2="397.387" y2="126.344"/>
			
				<line style="fill:none;stroke:#263238;stroke-linecap:round;stroke-linejoin:round;stroke-miterlimit:10;" x1="372.707" y1="140.529" x2="366.969" y2="146.046"/>
			
				<line style="fill:none;stroke:#263238;stroke-linecap:round;stroke-linejoin:round;stroke-miterlimit:10;" x1="397.37" y1="116.814" x2="376.664" y2="136.723"/>
		</g>
		<g>
			
				<line style="fill:none;stroke:#263238;stroke-linecap:round;stroke-linejoin:round;stroke-miterlimit:10;" x1="291.778" y1="72.621" x2="273.7" y2="90.004"/>
			
				<line style="fill:none;stroke:#263238;stroke-linecap:round;stroke-linejoin:round;stroke-miterlimit:10;" x1="318.671" y1="46.763" x2="297.066" y2="67.536"/>
			
				<line style="fill:none;stroke:#263238;stroke-linecap:round;stroke-linejoin:round;stroke-miterlimit:10;" x1="272.387" y1="81.72" x2="266.649" y2="87.238"/>
			
				<line style="fill:none;stroke:#263238;stroke-linecap:round;stroke-linejoin:round;stroke-miterlimit:10;" x1="297.05" y1="58.006" x2="276.345" y2="77.915"/>
		</g>
		<g>
			
				<line style="fill:none;stroke:#263238;stroke-linecap:round;stroke-linejoin:round;stroke-miterlimit:10;" x1="387.774" y1="199.751" x2="369.695" y2="217.134"/>
			
				<line style="fill:none;stroke:#263238;stroke-linecap:round;stroke-linejoin:round;stroke-miterlimit:10;" x1="414.666" y1="173.893" x2="393.062" y2="194.666"/>
			
				<line style="fill:none;stroke:#263238;stroke-linecap:round;stroke-linejoin:round;stroke-miterlimit:10;" x1="368.382" y1="208.85" x2="362.645" y2="214.367"/>
			
				<line style="fill:none;stroke:#263238;stroke-linecap:round;stroke-linejoin:round;stroke-miterlimit:10;" x1="393.046" y1="185.135" x2="372.34" y2="205.044"/>
		</g>
	</g>
</g>
<g id="Plants_2">
	<g>
		<g>
			<path style="fill:#92E3A9;stroke:#263238;stroke-linecap:round;stroke-linejoin:round;stroke-miterlimit:10;" d="
				M395.929,269.849l-0.784-6.683c0,0-3.55,0.206-4.918-2.883c-0.829-1.874-1.665-5.659-0.448-7.53
				c1.656-2.544,5.327-2.201,6.394,0.853c0.949,2.716,1.412,3.876,1.412,3.876c-0.228-3.931-3.188-19.758,5.722-17.352
				c3.619,0.978,4.614,4.482,4.774,7.243c0.16,2.761-0.217,9.908-0.217,9.908s2.39,0.257,2.555-3.711
				c0.166-3.968,4.019-5.775,5.711-3.894c1.692,1.881,2.476,8.564,0.618,10.651c-1.858,2.087-7.752,2.825-7.752,2.825l0.389,6.706
				L395.929,269.849z"/>
			<path style="fill:none;stroke:#263238;stroke-width:0.5;stroke-linecap:round;stroke-linejoin:round;stroke-miterlimit:10;" d="
				M401.051,241.232c0,0-1.473,1.339-1.072,5.893c0.402,4.554,0.402,12.725,0.402,12.725"/>
			<path style="fill:none;stroke:#263238;stroke-width:0.5;stroke-linecap:round;stroke-linejoin:round;stroke-miterlimit:10;" d="
				M404.936,244.313c0,0,1.741-0.268,1.205,3.884c-0.536,4.152,0,10.448,0,10.448"/>
			<path style="fill:none;stroke:#263238;stroke-width:0.5;stroke-linecap:round;stroke-linejoin:round;stroke-miterlimit:10;" d="
				M392.345,253.153c0,0-1.741,0.402-0.938,3.215c0.804,2.813,1.072,4.956,2.947,5.358c1.875,0.402,2.545,0.402,2.545,0.402
				l0.268,2.947"/>
			<path style="fill:none;stroke:#263238;stroke-width:0.5;stroke-linecap:round;stroke-linejoin:round;stroke-miterlimit:10;" d="
				M409.222,261.591c0,0,5.492,0.134,6.563-2.143c1.072-2.277,0.402-6.161,0.402-6.161"/>
			<path style="fill:none;stroke:#263238;stroke-width:0.5;stroke-linecap:round;stroke-linejoin:round;stroke-miterlimit:10;" d="
				M394.622,253.89c0,0.259-0.21,0.469-0.469,0.469c-0.259,0-0.469-0.21-0.469-0.469c0-0.259,0.21-0.469,0.469-0.469
				C394.412,253.421,394.622,253.631,394.622,253.89z"/>
			
				<circle style="fill:none;stroke:#263238;stroke-width:0.5;stroke-linecap:round;stroke-linejoin:round;stroke-miterlimit:10;" cx="395.76" cy="259.314" r="0.469"/>
			
				<circle style="fill:none;stroke:#263238;stroke-width:0.5;stroke-linecap:round;stroke-linejoin:round;stroke-miterlimit:10;" cx="393.417" cy="257.104" r="0.469"/>
			
				<circle style="fill:none;stroke:#263238;stroke-width:0.5;stroke-linecap:round;stroke-linejoin:round;stroke-miterlimit:10;" cx="402.926" cy="251.546" r="0.469"/>
			
				<circle style="fill:none;stroke:#263238;stroke-width:0.5;stroke-linecap:round;stroke-linejoin:round;stroke-miterlimit:10;" cx="398.506" cy="246.992" r="0.469"/>
			<path style="fill:none;stroke:#263238;stroke-width:0.5;stroke-linecap:round;stroke-linejoin:round;stroke-miterlimit:10;" d="
				M404.936,263.333c0,0.259-0.21,0.469-0.469,0.469c-0.259,0-0.469-0.21-0.469-0.469c0-0.259,0.21-0.469,0.469-0.469
				C404.726,262.864,404.936,263.074,404.936,263.333z"/>
			<path style="fill:none;stroke:#263238;stroke-width:0.5;stroke-linecap:round;stroke-linejoin:round;stroke-miterlimit:10;" d="
				M399.846,262.663c0,0.259-0.21,0.469-0.469,0.469c-0.259,0-0.469-0.21-0.469-0.469c0-0.259,0.21-0.469,0.469-0.469
				C399.636,262.194,399.846,262.404,399.846,262.663z"/>
			
				<circle style="fill:none;stroke:#263238;stroke-width:0.5;stroke-linecap:round;stroke-linejoin:round;stroke-miterlimit:10;" cx="403.73" cy="242.706" r="0.469"/>
			<path style="fill:none;stroke:#263238;stroke-width:0.5;stroke-linecap:round;stroke-linejoin:round;stroke-miterlimit:10;" d="
				M413.709,251.613c0,0.259-0.21,0.469-0.469,0.469s-0.469-0.21-0.469-0.469s0.21-0.469,0.469-0.469
				S413.709,251.354,413.709,251.613z"/>
			
				<circle style="fill:none;stroke:#263238;stroke-width:0.5;stroke-linecap:round;stroke-linejoin:round;stroke-miterlimit:10;" cx="412.034" cy="257.975" r="0.469"/>
			
				<circle style="fill:none;stroke:#263238;stroke-width:0.5;stroke-linecap:round;stroke-linejoin:round;stroke-miterlimit:10;" cx="403.73" cy="257.841" r="0.469"/>
		</g>
		<polygon style="fill:#FFFFFF;stroke:#263238;stroke-linecap:round;stroke-linejoin:round;stroke-miterlimit:10;" points="
			414.404,265.522 390.3,265.522 392.711,285.28 411.994,285.28 		"/>
	</g>
</g>
<g id="Plants_1">
	<g>
		<g>
			
				<line style="fill:none;stroke:#263238;stroke-width:2;stroke-miterlimit:10;" x1="55.651" y1="229.087" x2="74.096" y2="405.822"/>
			<g>
				<g>
					
						<line style="fill:none;stroke:#263238;stroke-width:2;stroke-miterlimit:10;" x1="71.123" y1="371.999" x2="62.761" y2="363.168"/>
					<path style="fill:#92E3A9;stroke:#263238;stroke-miterlimit:10;" d="M65.302,365.814c0,0,0.239-3.907-3.328-7.093
						c-2.146-1.917-13.442-6.669-14.514-2.69C46.294,360.358,57.856,368.855,65.302,365.814z"/>
					
						<line style="fill:none;stroke:#263238;stroke-width:0.5;stroke-miterlimit:10;" x1="65.302" y1="365.814" x2="54.548" y2="359.113"/>
				</g>
				<g>
					
						<line style="fill:none;stroke:#263238;stroke-width:2;stroke-miterlimit:10;" x1="73.22" y1="392.099" x2="64.859" y2="383.267"/>
					<path style="fill:#92E3A9;stroke:#263238;stroke-miterlimit:10;" d="M67.399,385.914c0,0,0.239-3.907-3.328-7.093
						c-2.146-1.917-13.442-6.669-14.514-2.69C48.392,380.457,59.953,388.955,67.399,385.914z"/>
					
						<line style="fill:none;stroke:#263238;stroke-width:0.5;stroke-miterlimit:10;" x1="67.399" y1="385.914" x2="56.646" y2="379.212"/>
				</g>
				<g>
					
						<line style="fill:none;stroke:#263238;stroke-width:2;stroke-miterlimit:10;" x1="66.004" y1="322.952" x2="57.643" y2="314.121"/>
					<path style="fill:#92E3A9;stroke:#263238;stroke-miterlimit:10;" d="M60.183,316.767c0,0,0.239-3.907-3.328-7.093
						c-2.146-1.917-13.442-6.669-14.514-2.69C41.176,311.31,52.737,319.808,60.183,316.767z"/>
					
						<line style="fill:none;stroke:#263238;stroke-width:0.5;stroke-miterlimit:10;" x1="60.183" y1="316.767" x2="49.43" y2="310.066"/>
				</g>
				<g>
					
						<line style="fill:none;stroke:#263238;stroke-width:2;stroke-miterlimit:10;" x1="68.102" y1="343.052" x2="59.74" y2="334.22"/>
					<path style="fill:#92E3A9;stroke:#263238;stroke-miterlimit:10;" d="M62.281,336.866c0,0,0.239-3.907-3.328-7.093
						c-2.146-1.917-13.442-6.669-14.514-2.69C43.273,331.41,54.835,339.908,62.281,336.866z"/>
					
						<line style="fill:none;stroke:#263238;stroke-width:0.5;stroke-miterlimit:10;" x1="62.281" y1="336.866" x2="51.527" y2="330.165"/>
				</g>
				<g>
					
						<line style="fill:none;stroke:#263238;stroke-width:2;stroke-miterlimit:10;" x1="62.597" y1="290.302" x2="54.235" y2="281.47"/>
					<path style="fill:#92E3A9;stroke:#263238;stroke-miterlimit:10;" d="M56.776,284.116c0,0,0.239-3.907-3.328-7.093
						c-2.146-1.917-13.442-6.669-14.514-2.69C37.768,278.66,49.33,287.157,56.776,284.116z"/>
					
						<line style="fill:none;stroke:#263238;stroke-width:0.5;stroke-miterlimit:10;" x1="56.776" y1="284.116" x2="46.022" y2="277.415"/>
				</g>
				<g>
					
						<line style="fill:none;stroke:#263238;stroke-width:2;stroke-miterlimit:10;" x1="59.174" y1="257.508" x2="50.813" y2="248.677"/>
					<path style="fill:#92E3A9;stroke:#263238;stroke-miterlimit:10;" d="M53.353,251.323c0,0,0.239-3.907-3.328-7.093
						c-2.146-1.917-13.442-6.669-14.514-2.691C34.346,245.867,45.907,254.364,53.353,251.323z"/>
					
						<line style="fill:none;stroke:#263238;stroke-width:0.5;stroke-miterlimit:10;" x1="53.353" y1="251.323" x2="42.6" y2="244.622"/>
				</g>
				<g>
					
						<line style="fill:none;stroke:#263238;stroke-width:2;stroke-miterlimit:10;" x1="69.717" y1="360.107" x2="76.075" y2="349.739"/>
					<path style="fill:#92E3A9;stroke:#263238;stroke-miterlimit:10;" d="M74.136,352.853c0,0-1.041-3.773,1.792-7.627
						c1.704-2.319,11.775-9.3,13.645-5.629C91.607,343.59,82.049,354.291,74.136,352.853z"/>
					
						<line style="fill:none;stroke:#263238;stroke-width:0.5;stroke-miterlimit:10;" x1="74.136" y1="352.853" x2="83.819" y2="343.598"/>
				</g>
				<g>
					
						<line style="fill:none;stroke:#263238;stroke-width:2;stroke-miterlimit:10;" x1="64.197" y1="307.214" x2="70.555" y2="296.846"/>
					<path style="fill:#92E3A9;stroke:#263238;stroke-miterlimit:10;" d="M68.616,299.96c0,0-1.041-3.773,1.792-7.627
						c1.704-2.319,11.775-9.3,13.645-5.629C86.087,290.697,76.529,301.398,68.616,299.96z"/>
					
						<line style="fill:none;stroke:#263238;stroke-width:0.5;stroke-miterlimit:10;" x1="68.616" y1="299.96" x2="78.299" y2="290.705"/>
				</g>
				<g>
					
						<line style="fill:none;stroke:#263238;stroke-width:2;stroke-miterlimit:10;" x1="61.772" y1="283.97" x2="68.13" y2="273.602"/>
					<path style="fill:#92E3A9;stroke:#263238;stroke-miterlimit:10;" d="M66.19,276.716c0,0-1.041-3.773,1.792-7.627
						c1.704-2.319,11.775-9.3,13.645-5.629C83.661,267.452,74.104,278.154,66.19,276.716z"/>
					
						<line style="fill:none;stroke:#263238;stroke-width:0.5;stroke-miterlimit:10;" x1="66.19" y1="276.716" x2="75.873" y2="267.461"/>
				</g>
				<g>
					
						<line style="fill:none;stroke:#263238;stroke-width:2;stroke-miterlimit:10;" x1="58.215" y1="249.893" x2="64.573" y2="239.525"/>
					<path style="fill:#92E3A9;stroke:#263238;stroke-miterlimit:10;" d="M62.634,242.639c0,0-1.041-3.773,1.792-7.627
						c1.704-2.319,11.775-9.3,13.645-5.629C80.105,233.376,70.547,244.077,62.634,242.639z"/>
					
						<line style="fill:none;stroke:#263238;stroke-width:0.5;stroke-miterlimit:10;" x1="62.634" y1="242.639" x2="72.317" y2="233.384"/>
					<path style="fill:#92E3A9;stroke:#263238;stroke-miterlimit:10;" d="M55.496,228.106c0,0-1.041-3.773,1.792-7.627
						c1.704-2.319,11.775-9.3,13.645-5.629C72.967,218.843,63.409,229.544,55.496,228.106z"/>
					
						<line style="fill:none;stroke:#263238;stroke-width:0.5;stroke-miterlimit:10;" x1="55.496" y1="228.106" x2="65.179" y2="218.851"/>
					<path style="fill:#92E3A9;stroke:#263238;stroke-miterlimit:10;" d="M56.057,228.505c0,0-3.861,0.639-7.397-2.582
						c-2.127-1.938-8.014-12.685-4.167-14.16C48.677,210.159,58.318,220.786,56.057,228.505z"/>
					
						<line style="fill:none;stroke:#263238;stroke-width:0.5;stroke-miterlimit:10;" x1="56.057" y1="228.505" x2="47.869" y2="217.905"/>
				</g>
			</g>
		</g>
		<g>
			
				<line style="fill:none;stroke:#263238;stroke-width:2;stroke-miterlimit:10;" x1="104.299" y1="253.427" x2="85.958" y2="430.172"/>
			<g>
				<g>
					
						<line style="fill:none;stroke:#263238;stroke-width:2;stroke-miterlimit:10;" x1="90.013" y1="396.462" x2="83.649" y2="386.098"/>
					<path style="fill:#92E3A9;stroke:#263238;stroke-miterlimit:10;" d="M85.59,389.211c0,0,1.038-3.774-1.796-7.626
						c-1.706-2.318-11.781-9.294-13.649-5.621C68.114,379.958,77.678,390.654,85.59,389.211z"/>
					
						<line style="fill:none;stroke:#263238;stroke-width:0.5;stroke-miterlimit:10;" x1="85.59" y1="389.211" x2="76.447" y2="380.439"/>
				</g>
				<g>
					
						<line style="fill:none;stroke:#263238;stroke-width:2;stroke-miterlimit:10;" x1="95.103" y1="347.412" x2="88.739" y2="337.048"/>
					<path style="fill:#92E3A9;stroke:#263238;stroke-miterlimit:10;" d="M90.68,340.16c0,0,1.039-3.774-1.796-7.626
						c-1.706-2.318-11.781-9.293-13.649-5.621C73.204,330.908,82.768,341.603,90.68,340.16z"/>
					
						<line style="fill:none;stroke:#263238;stroke-width:0.5;stroke-miterlimit:10;" x1="90.68" y1="340.16" x2="81.537" y2="331.389"/>
				</g>
				<g>
					
						<line style="fill:none;stroke:#263238;stroke-width:2;stroke-miterlimit:10;" x1="93.017" y1="367.513" x2="86.653" y2="357.149"/>
					<path style="fill:#92E3A9;stroke:#263238;stroke-miterlimit:10;" d="M88.594,360.261c0,0,1.039-3.774-1.796-7.626
						c-1.706-2.318-11.781-9.293-13.649-5.621C71.118,351.008,80.682,361.704,88.594,360.261z"/>
					
						<line style="fill:none;stroke:#263238;stroke-width:0.5;stroke-miterlimit:10;" x1="88.594" y1="360.261" x2="79.451" y2="351.49"/>
				</g>
				<g>
					
						<line style="fill:none;stroke:#263238;stroke-width:2;stroke-miterlimit:10;" x1="98.491" y1="314.759" x2="92.127" y2="304.395"/>
					<path style="fill:#92E3A9;stroke:#263238;stroke-miterlimit:10;" d="M94.068,307.508c0,0,1.039-3.774-1.796-7.626
						c-1.706-2.318-11.781-9.293-13.649-5.621C76.592,298.255,86.156,308.951,94.068,307.508z"/>
					
						<line style="fill:none;stroke:#263238;stroke-width:0.5;stroke-miterlimit:10;" x1="94.068" y1="307.508" x2="84.925" y2="298.736"/>
				</g>
				<g>
					
						<line style="fill:none;stroke:#263238;stroke-width:2;stroke-miterlimit:10;" x1="101.894" y1="281.964" x2="95.53" y2="271.6"/>
					<path style="fill:#92E3A9;stroke:#263238;stroke-miterlimit:10;" d="M97.471,274.712c0,0,1.039-3.774-1.796-7.626
						c-1.706-2.318-11.781-9.293-13.649-5.621C79.995,265.46,89.559,276.156,97.471,274.712z"/>
					
						<line style="fill:none;stroke:#263238;stroke-width:0.5;stroke-miterlimit:10;" x1="97.471" y1="274.712" x2="88.328" y2="265.941"/>
				</g>
				<g>
					
						<line style="fill:none;stroke:#263238;stroke-width:2;stroke-miterlimit:10;" x1="91.087" y1="384.535" x2="99.443" y2="375.698"/>
					<path style="fill:#92E3A9;stroke:#263238;stroke-miterlimit:10;" d="M96.904,378.346c0,0-0.242-3.906,3.324-7.095
						c2.145-1.918,13.438-6.677,14.512-2.699C115.908,372.879,104.352,381.383,96.904,378.346z"/>
					
						<line style="fill:none;stroke:#263238;stroke-width:0.5;stroke-miterlimit:10;" x1="96.904" y1="378.346" x2="108.285" y2="371.283"/>
				</g>
				<g>
					
						<line style="fill:none;stroke:#263238;stroke-width:2;stroke-miterlimit:10;" x1="96.576" y1="331.639" x2="104.932" y2="322.802"/>
					<path style="fill:#92E3A9;stroke:#263238;stroke-miterlimit:10;" d="M102.393,325.45c0,0-0.242-3.906,3.324-7.094
						c2.145-1.918,13.438-6.677,14.512-2.699C121.397,319.983,109.841,328.487,102.393,325.45z"/>
					
						<line style="fill:none;stroke:#263238;stroke-width:0.5;stroke-miterlimit:10;" x1="102.393" y1="325.45" x2="113.774" y2="318.387"/>
				</g>
				<g>
					
						<line style="fill:none;stroke:#263238;stroke-width:2;stroke-miterlimit:10;" x1="98.988" y1="308.393" x2="107.344" y2="299.557"/>
					<path style="fill:#92E3A9;stroke:#263238;stroke-miterlimit:10;" d="M104.805,302.204c0,0-0.242-3.906,3.324-7.094
						c2.145-1.918,13.438-6.677,14.512-2.699C123.809,296.737,112.253,305.241,104.805,302.204z"/>
					
						<line style="fill:none;stroke:#263238;stroke-width:0.5;stroke-miterlimit:10;" x1="104.805" y1="302.204" x2="116.186" y2="295.141"/>
				</g>
				<g>
					
						<line style="fill:none;stroke:#263238;stroke-width:2;stroke-miterlimit:10;" x1="102.524" y1="274.315" x2="110.88" y2="265.478"/>
					<path style="fill:#92E3A9;stroke:#263238;stroke-miterlimit:10;" d="M108.341,268.126c0,0-0.242-3.906,3.324-7.095
						c2.145-1.918,13.438-6.677,14.512-2.699C127.345,262.658,115.789,271.163,108.341,268.126z"/>
					
						<line style="fill:none;stroke:#263238;stroke-width:0.5;stroke-miterlimit:10;" x1="108.341" y1="268.126" x2="119.722" y2="261.063"/>
					<path style="fill:#92E3A9;stroke:#263238;stroke-miterlimit:10;" d="M104.349,252.434c0,0-0.241-3.906,3.324-7.094
						c2.145-1.918,13.438-6.677,14.512-2.699C123.353,246.967,111.796,255.471,104.349,252.434z"/>
					
						<line style="fill:none;stroke:#263238;stroke-width:0.5;stroke-miterlimit:10;" x1="104.349" y1="252.434" x2="115.73" y2="245.372"/>
					<path style="fill:#92E3A9;stroke:#263238;stroke-miterlimit:10;" d="M104.816,252.941c0,0-3.91-0.169-6.707-4.049
						c-1.683-2.334-5.231-14.064-1.162-14.715C101.371,233.468,108.617,245.852,104.816,252.941z"/>
					
						<line style="fill:none;stroke:#263238;stroke-width:0.5;stroke-miterlimit:10;" x1="104.816" y1="252.941" x2="98.985" y2="240.882"/>
				</g>
			</g>
		</g>
		
			<line style="fill:none;stroke:#263238;stroke-width:2;stroke-miterlimit:10;" x1="83.281" y1="181.456" x2="83.281" y2="404.961"/>
		<g>
			<g>
				
					<line style="fill:none;stroke:#263238;stroke-width:2;stroke-miterlimit:10;" x1="83.459" y1="371.355" x2="76.06" y2="361.703"/>
				<path style="fill:#92E3A9;stroke:#263238;stroke-miterlimit:10;" d="M78.312,364.599c0,0,0.643-3.861-2.574-7.4
					c-1.936-2.129-12.677-8.028-14.156-4.182C59.973,357.199,70.59,366.851,78.312,364.599z"/>
				
					<line style="fill:none;stroke:#263238;stroke-width:0.5;stroke-miterlimit:10;" x1="78.312" y1="364.599" x2="68.312" y2="356.818"/>
			</g>
			<g>
				
					<line style="fill:none;stroke:#263238;stroke-width:2;stroke-miterlimit:10;" x1="83.459" y1="329.353" x2="76.06" y2="319.701"/>
				<path style="fill:#92E3A9;stroke:#263238;stroke-miterlimit:10;" d="M78.312,322.596c0,0,0.643-3.861-2.574-7.4
					c-1.936-2.129-12.677-8.028-14.156-4.182C59.973,315.197,70.59,324.849,78.312,322.596z"/>
				
					<line style="fill:none;stroke:#263238;stroke-width:0.5;stroke-miterlimit:10;" x1="78.312" y1="322.596" x2="68.312" y2="314.815"/>
			</g>
			<g>
				
					<line style="fill:none;stroke:#263238;stroke-width:2;stroke-miterlimit:10;" x1="83.459" y1="280.039" x2="76.06" y2="270.387"/>
				<path style="fill:#92E3A9;stroke:#263238;stroke-miterlimit:10;" d="M78.312,273.283c0,0,0.643-3.861-2.574-7.4
					c-1.936-2.129-12.677-8.028-14.156-4.182C59.973,265.883,70.59,275.535,78.312,273.283z"/>
				
					<line style="fill:none;stroke:#263238;stroke-width:0.5;stroke-miterlimit:10;" x1="78.312" y1="273.283" x2="68.312" y2="265.502"/>
			</g>
			<g>
				
					<line style="fill:none;stroke:#263238;stroke-width:2;stroke-miterlimit:10;" x1="83.459" y1="247.211" x2="76.06" y2="237.559"/>
				<path style="fill:#92E3A9;stroke:#263238;stroke-miterlimit:10;" d="M78.312,240.455c0,0,0.643-3.861-2.574-7.4
					c-1.936-2.129-12.677-8.028-14.156-4.182C59.973,233.055,70.59,242.707,78.312,240.455z"/>
				
					<line style="fill:none;stroke:#263238;stroke-width:0.5;stroke-miterlimit:10;" x1="78.312" y1="240.455" x2="68.312" y2="232.674"/>
			</g>
			<g>
				
					<line style="fill:none;stroke:#263238;stroke-width:2;stroke-miterlimit:10;" x1="83.459" y1="214.24" x2="76.06" y2="204.588"/>
				<path style="fill:#92E3A9;stroke:#263238;stroke-miterlimit:10;" d="M78.312,207.484c0,0,0.643-3.861-2.574-7.4
					c-1.936-2.129-12.677-8.028-14.156-4.182C59.973,200.084,70.59,209.736,78.312,207.484z"/>
				
					<line style="fill:none;stroke:#263238;stroke-width:0.5;stroke-miterlimit:10;" x1="78.312" y1="207.484" x2="68.312" y2="199.702"/>
			</g>
			<g>
				
					<line style="fill:none;stroke:#263238;stroke-width:2;stroke-miterlimit:10;" x1="83.296" y1="384.181" x2="90.696" y2="374.529"/>
				<path style="fill:#92E3A9;stroke:#263238;stroke-miterlimit:10;" d="M88.443,377.425c0,0-0.643-3.861,2.574-7.4
					c1.936-2.129,12.677-8.028,14.156-4.182C106.782,370.025,96.165,379.677,88.443,377.425z"/>
				
					<line style="fill:none;stroke:#263238;stroke-width:0.5;stroke-miterlimit:10;" x1="88.443" y1="377.425" x2="99.035" y2="369.225"/>
			</g>
			<g>
				
					<line style="fill:none;stroke:#263238;stroke-width:2;stroke-miterlimit:10;" x1="83.296" y1="317.379" x2="90.696" y2="307.727"/>
				<path style="fill:#92E3A9;stroke:#263238;stroke-miterlimit:10;" d="M88.443,310.622c0,0-0.643-3.861,2.574-7.4
					c1.936-2.129,12.677-8.028,14.156-4.182C106.782,303.223,96.165,312.874,88.443,310.622z"/>
				
					<line style="fill:none;stroke:#263238;stroke-width:0.5;stroke-miterlimit:10;" x1="88.443" y1="310.622" x2="99.035" y2="302.422"/>
			</g>
			<g>
				
					<line style="fill:none;stroke:#263238;stroke-width:2;stroke-miterlimit:10;" x1="83.296" y1="284.407" x2="90.696" y2="274.755"/>
				<path style="fill:#92E3A9;stroke:#263238;stroke-miterlimit:10;" d="M88.443,277.651c0,0-0.643-3.861,2.574-7.4
					c1.936-2.129,12.677-8.028,14.156-4.182C106.782,270.251,96.165,279.903,88.443,277.651z"/>
				
					<line style="fill:none;stroke:#263238;stroke-width:0.5;stroke-miterlimit:10;" x1="88.443" y1="277.651" x2="99.035" y2="269.451"/>
			</g>
			<g>
				
					<line style="fill:none;stroke:#263238;stroke-width:2;stroke-miterlimit:10;" x1="83.296" y1="240.828" x2="90.696" y2="231.176"/>
				<path style="fill:#92E3A9;stroke:#263238;stroke-miterlimit:10;" d="M88.443,234.072c0,0-0.643-3.861,2.574-7.4
					c1.936-2.129,12.677-8.028,14.156-4.183C106.782,226.672,96.165,236.324,88.443,234.072z"/>
				
					<line style="fill:none;stroke:#263238;stroke-width:0.5;stroke-miterlimit:10;" x1="88.443" y1="234.072" x2="99.035" y2="225.872"/>
			</g>
			<g>
				
					<line style="fill:none;stroke:#263238;stroke-width:2;stroke-miterlimit:10;" x1="83.296" y1="206.566" x2="90.696" y2="196.915"/>
				<path style="fill:#92E3A9;stroke:#263238;stroke-miterlimit:10;" d="M88.443,199.81c0,0-0.643-3.861,2.574-7.4
					c1.936-2.129,12.677-8.028,14.156-4.182C106.782,192.41,96.165,202.062,88.443,199.81z"/>
				
					<line style="fill:none;stroke:#263238;stroke-width:0.5;stroke-miterlimit:10;" x1="88.443" y1="199.81" x2="99.035" y2="191.61"/>
				<path style="fill:#92E3A9;stroke:#263238;stroke-miterlimit:10;" d="M82.853,184.615c0,0-0.644-3.861,2.574-7.4
					c1.936-2.129,12.677-8.028,14.156-4.182C101.191,177.215,90.574,186.867,82.853,184.615z"/>
				
					<line style="fill:none;stroke:#263238;stroke-width:0.5;stroke-miterlimit:10;" x1="82.853" y1="184.615" x2="93.444" y2="176.415"/>
				<path style="fill:#92E3A9;stroke:#263238;stroke-miterlimit:10;" d="M83.369,185.07c0,0-3.907,0.235-7.089-3.336
					c-1.915-2.148-6.654-13.449-2.675-14.516C77.934,166.057,86.419,177.627,83.369,185.07z"/>
				
					<line style="fill:none;stroke:#263238;stroke-width:0.5;stroke-miterlimit:10;" x1="83.369" y1="185.07" x2="76.326" y2="173.677"/>
			</g>
		</g>
		<polygon style="fill:#263238;stroke:#263238;stroke-miterlimit:10;" points="92.476,462.929 68.806,462.929 65.847,403.15 
			95.435,403.15 		"/>
	</g>
</g>
<g id="Device">
	<g>
		<polygon style="fill:#7D7D7D;stroke:#263238;stroke-linecap:round;stroke-linejoin:round;stroke-miterlimit:10;" points="
			306.345,220 379.332,220 362.332,282.623 289.345,282.623 		"/>
		<polygon style="fill:#FFFFFF;stroke:#263238;stroke-linecap:round;stroke-linejoin:round;stroke-miterlimit:10;" points="
			308.431,222.333 375.979,222.333 360.246,280.289 292.698,280.289 		"/>
		<g>
			<g>
				<path style="fill:#263238;" d="M324.794,262.214l4.059-15.162h1.69l-3.647,13.624h4.332l-0.412,1.538H324.794z"/>
				<path style="fill:#263238;" d="M335.048,250.712c0.62-2.317,2.167-3.812,4.486-3.812c2.339,0,3.087,1.495,2.466,3.812
					l-2.099,7.841c-0.615,2.296-2.169,3.812-4.507,3.812c-2.319,0-3.06-1.516-2.445-3.812L335.048,250.712z M334.592,258.64
					c-0.371,1.386,0,2.188,1.213,2.188c1.235,0,2.012-0.802,2.383-2.188l2.145-8.014c0.365-1.364,0.023-2.188-1.211-2.188
					c-1.213,0-2.019,0.824-2.385,2.188L334.592,258.64z"/>
				<path style="fill:#263238;" d="M350.3,250.712l-0.348,1.3h-1.603l0.371-1.386c0.365-1.364,0.044-2.188-1.19-2.188
					c-1.212,0-1.996,0.824-2.362,2.188l-2.145,8.014c-0.365,1.365-0.021,2.188,1.19,2.188c1.234,0,1.996-0.823,2.362-2.188
					l0.812-3.033h-1.559l0.406-1.516h3.162l-1.194,4.462c-0.615,2.296-2.103,3.812-4.442,3.812c-2.317,0-2.994-1.516-2.38-3.812
					l2.099-7.841c0.615-2.295,2.103-3.812,4.421-3.812C350.238,246.9,350.915,248.417,350.3,250.712z"/>
				<path style="fill:#263238;" d="M351.778,250.712c0.62-2.317,2.167-3.812,4.486-3.812c2.339,0,3.087,1.495,2.466,3.812
					l-2.099,7.841c-0.615,2.296-2.169,3.812-4.507,3.812c-2.319,0-3.06-1.516-2.445-3.812L351.778,250.712z M351.322,258.64
					c-0.371,1.386,0,2.188,1.213,2.188c1.235,0,2.012-0.802,2.383-2.188l2.145-8.014c0.365-1.364,0.023-2.188-1.211-2.188
					c-1.213,0-2.019,0.824-2.385,2.188L351.322,258.64z"/>
			</g>
			<path style="fill:none;stroke:#263238;stroke-linecap:round;stroke-linejoin:round;stroke-miterlimit:10;" d="M326.628,247.877
				c-0.132-3.443-0.927-9.804-4.703-14.723c-5.449-7.1-15.327,2.554-11.163,14.639c0.578,1.679,1.446,3.125,2.354,4.311"/>
			<path style="fill:none;stroke:#263238;stroke-linecap:round;stroke-linejoin:round;stroke-miterlimit:10;" d="M317.046,255.909
				c0,0-14.412,2.188-11.379,7.48c5.258,9.175,13.985,0.751,17.674-3.544"/>
			<path style="fill:#92E3A9;stroke:#263238;stroke-linecap:round;stroke-linejoin:round;stroke-miterlimit:10;" d="
				M323.582,243.277c1.62,4.352,1.277,8.496-0.766,9.256s-5.012-2.151-6.631-6.503c-1.62-4.352-1.277-8.496,0.766-9.256
				C318.993,236.014,321.962,238.925,323.582,243.277z"/>
			<path style="fill:#92E3A9;stroke:#263238;stroke-linecap:round;stroke-linejoin:round;stroke-miterlimit:10;" d="
				M309.065,263.637c0.504,1.329,3.067,1.589,5.725,0.581c2.658-1.008,4.404-2.903,3.9-4.232c-0.504-1.329-3.067-1.589-5.725-0.581
				C310.307,260.413,308.561,262.308,309.065,263.637z"/>
			<path style="fill:none;stroke:#263238;stroke-linecap:round;stroke-linejoin:round;stroke-miterlimit:10;" d="M330.966,235.623
				c0,0,2.903,7.36-2.347,13.871c0,0,0.889-4.813-1.241-11.04"/>
		</g>
		
			<rect x="260.011" y="279.295" style="fill:#7D7D7D;stroke:#263238;stroke-linecap:round;stroke-linejoin:round;stroke-miterlimit:10;" width="102.321" height="3.328"/>
		
			<rect x="315.314" y="279.295" style="fill:#595959;stroke:#263238;stroke-linecap:round;stroke-linejoin:round;stroke-miterlimit:10;" width="47.019" height="3.328"/>
	</g>
</g>
<g id="Table">
	<g>
		<g>
			
				<rect x="227.285" y="287.93" style="fill:#FFFFFF;stroke:#263238;stroke-linecap:round;stroke-linejoin:round;stroke-miterlimit:10;" width="5.5" height="174.612"/>
			
				<rect x="222.587" y="287.93" transform="matrix(-1 -1.224647e-16 1.224647e-16 -1 449.8712 750.472)" style="fill:#A8A8A8;stroke:#263238;stroke-linecap:round;stroke-linejoin:round;stroke-miterlimit:10;" width="4.698" height="174.612"/>
		</g>
		<g>
			
				<rect x="368.18" y="379.294" style="fill:#FFFFFF;stroke:#263238;stroke-linecap:round;stroke-linejoin:round;stroke-miterlimit:10;" width="5.5" height="83.248"/>
			
				<rect x="363.483" y="379.294" transform="matrix(-1 -1.224647e-16 1.224647e-16 -1 731.663 841.8361)" style="fill:#A8A8A8;stroke:#263238;stroke-linecap:round;stroke-linejoin:round;stroke-miterlimit:10;" width="4.698" height="83.248"/>
		</g>
		<g>
			<g>
				
					<rect x="427.073" y="379.294" style="fill:#FFFFFF;stroke:#263238;stroke-linecap:round;stroke-linejoin:round;stroke-miterlimit:10;" width="5.5" height="83.248"/>
				
					<rect x="422.375" y="379.294" transform="matrix(-1 -1.224647e-16 1.224647e-16 -1 849.448 841.8361)" style="fill:#A8A8A8;stroke:#263238;stroke-linecap:round;stroke-linejoin:round;stroke-miterlimit:10;" width="4.698" height="83.248"/>
			</g>
			<g>
				
					<rect x="313.667" y="289.628" transform="matrix(-1 -1.224647e-16 1.224647e-16 -1 680.9909 673.6739)" style="fill:#A8A8A8;stroke:#263238;stroke-linecap:round;stroke-linejoin:round;stroke-miterlimit:10;" width="53.656" height="94.418"/>
				
					<rect x="367.323" y="289.628" style="fill:#FFFFFF;stroke:#263238;stroke-linecap:round;stroke-linejoin:round;stroke-miterlimit:10;" width="70.71" height="94.418"/>
				<polygon style="fill:#263238;stroke:#263238;stroke-linecap:round;stroke-linejoin:round;stroke-miterlimit:10;" points="
					367.323,289.628 313.667,289.628 313.667,294.225 367.323,294.225 438.033,294.225 438.033,289.628 				"/>
				<g>
					
						<rect x="318.243" y="295.035" style="fill:#FFFFFF;stroke:#263238;stroke-linecap:round;stroke-linejoin:round;stroke-miterlimit:10;" width="45.753" height="22.045"/>
					<rect x="335.088" y="303.978" style="fill:#263238;" width="12.062" height="4.159"/>
				</g>
				<g>
					
						<rect x="318.243" y="325.399" style="fill:#FFFFFF;stroke:#263238;stroke-linecap:round;stroke-linejoin:round;stroke-miterlimit:10;" width="45.753" height="22.045"/>
					<rect x="335.088" y="333.925" style="fill:#263238;" width="12.062" height="4.159"/>
				</g>
				<g>
					
						<rect x="318.243" y="355.762" style="fill:#FFFFFF;stroke:#263238;stroke-linecap:round;stroke-linejoin:round;stroke-miterlimit:10;" width="45.753" height="22.045"/>
					<rect x="335.088" y="363.873" style="fill:#263238;" width="12.062" height="4.159"/>
				</g>
			</g>
			<g>
				
					<rect x="215" y="285.48" style="fill:#A8A8A8;stroke:#263238;stroke-linecap:round;stroke-linejoin:round;stroke-miterlimit:10;" width="230.326" height="5.49"/>
				
					<rect x="375.78" y="285.48" style="fill:#FFFFFF;stroke:#263238;stroke-linecap:round;stroke-linejoin:round;stroke-miterlimit:10;" width="69.546" height="5.49"/>
			</g>
		</g>
	</g>
</g>
<g id="Character">
	<g>
		<g>
			<path style="fill:#FFFFFF;stroke:#263238;stroke-linecap:round;stroke-linejoin:round;stroke-miterlimit:10;" d="
				M234.532,341.362c0,0,6.862,4.751,17.037,34.104c3.386,9.768,22.389,62.391,23.389,66.057c1,3.667,3,8,6,8s14-14,12.667-15.667
				c-1.333-1.667-7.667-8.333-7.667-8.333s-3.781-42.602-4.448-54.602c-0.667-12,2.059-26.456-4.275-36.122
				c-6.333-9.667-34.333,0.333-34.333,0.333L234.532,341.362z"/>
			<g>
				<path style="fill:#92E3A9;stroke:#263238;stroke-linecap:round;stroke-linejoin:round;stroke-miterlimit:10;" d="
					M288.957,425.523c0,0-2.667,1.333-2.333,4.333c0.333,3,3.333,7,3.333,7s-6.333,5-9.667,5.333c-3.333,0.333-7,1-7,2
					s2.667,2.667,4.333,6.333c1.667,3.667,5.333,9.333,6.333,10.667c1,1.333,1.667,2.333,5.333,1.333
					c3.667-1,11.667-8.333,16-11.333c4.333-3,17.333-5,19.667-6.667c2.333-1.667,9.667-12.333,6.333-14.333
					c-3.333-2-4.333,0.333-8.333,1.333s-15.667-0.333-22-1.667c-6.333-1.333-8.333-1.667-8.333-1.667L288.957,425.523z"/>
				<path style="fill:#FFFFFF;stroke:#263238;stroke-linecap:round;stroke-linejoin:round;stroke-miterlimit:10;" d="
					M283.419,460.429c0.219,0.32,0.404,0.582,0.538,0.761c1,1.333,1.667,2.333,5.333,1.333c3.667-1,11.667-8.333,16-11.333
					c4.333-3,17.333-5,19.667-6.667c2.333-1.667,9.667-12.333,6.333-14.333c-0.563-0.338-1.055-0.543-1.511-0.661
					c0.059,0.221,0.118,0.424,0.177,0.661c1,4-2.333,8-5.333,11s-13,2.333-24,8C292.94,453.148,286.569,457.911,283.419,460.429z"/>
			</g>
			<path style="fill:#263238;stroke:#263238;stroke-linecap:round;stroke-linejoin:round;stroke-miterlimit:10;" d="
				M283.103,392.167c-0.719-8.762-1.355-16.958-1.593-21.246c-0.667-12,2.059-26.456-4.275-36.122
				c-6.333-9.667-34.333,0.333-34.333,0.333l-8.37,6.23c0,0,6.862,4.751,17.037,34.104c1.295,3.736,4.874,13.74,8.857,24.876
				L283.103,392.167z"/>
		</g>
		<g>
			<g>
				<path style="fill:#FFFFFF;stroke:#263238;stroke-linecap:round;stroke-linejoin:round;stroke-miterlimit:10;" d="
					M266.781,170.375c0,0,1.512,3.932,1.21,7.259c-0.303,3.327-3.327,4.839-3.629,3.932c-0.303-0.907-0.303-3.327-0.303-4.537
					c0-1.21,0-1.21,0-1.21s-0.605,1.21-2.722,3.327s-3.327,1.512-4.234,1.512s-1.21-3.025,0.302-5.142
					C258.918,173.4,263.757,168.561,266.781,170.375z"/>
				<path style="fill:#FFFFFF;stroke:#263238;stroke-linecap:round;stroke-linejoin:round;stroke-miterlimit:10;" d="
					M273.738,178.239c-3.024-1.815-7.561,4.537-14.517,3.024c-0.887-0.193-1.21-1.512,0.302-4.537
					c1.512-3.024,6.351-5.444,8.771-7.259c2.419-1.815,4.234-3.327,4.234-5.444c0-2.117-5.444,1.21-6.956,2.42
					c-0.691,0.553-3.152,1.801-5.706,3.051c-0.371,0.013-0.809,0.033-1.3,0.063c-2.697,0.168-6.841,0.648-8.418,2.028
					c-2.055,1.798-3.235,7.946-3.73,10.317c-1.337,1.937-2.538,3.724-3.227,4.805c-2.117,3.327-44.762,34.479-44.762,34.479
					l3.024,26.615l48.391-55.045c0,0,1.21-1.21,4.537-2.42c3.327-1.21,7.864-2.117,11.795-4.234c3.932-2.117,4.234-2.42,8.468-5.142
					C276.696,179.642,275.378,179.223,273.738,178.239z"/>
				<path style="fill:#92E3A9;stroke:#263238;stroke-linecap:round;stroke-linejoin:round;stroke-miterlimit:10;" d="
					M222.875,203.042c-11.843,8.938-24.446,18.144-24.446,18.144l3.024,26.615l29.722-33.809L222.875,203.042z"/>
			</g>
			<g>
				<path style="fill:#FFFFFF;stroke:#263238;stroke-linecap:round;stroke-linejoin:round;stroke-miterlimit:10;" d="M208,303.667
					c0,0,21.333-1,52.333,4S302.933,317.989,302,324c-3.778,24.341-60.611,104.469-60.611,104.469l1,11.333c0,0-2,2.667-9,3
					c-7,0.333-15.667-9.667-15.667-9.667s7.824-8.092,10.824-17.758c3-9.667,27.12-72.044,27.12-72.044S224,350.333,189,344
					S208,303.667,208,303.667z"/>
				<path style="fill:#263238;stroke:#263238;stroke-linecap:round;stroke-linejoin:round;stroke-miterlimit:10;" d="
					M260.333,307.667c-31-5-52.333-4-52.333-4s-54,34-19,40.333c35,6.333,66.667-0.667,66.667-0.667s-10.037,25.958-17.967,46.979
					l23.509,9.042C278,373.885,299.714,338.73,302,324C302.933,317.989,291.333,312.667,260.333,307.667z"/>
				<g>
					<path style="fill:#92E3A9;stroke:#263238;stroke-linecap:round;stroke-linejoin:round;stroke-miterlimit:10;" d="
						M241.389,428.469c0,0-2,0.667-3,3c-1,2.333-1.667,4.667-1.667,4.667s-6.333-1.333-10.667-3.333c-4.333-2-7.333-4-7.333-4
						s-3,0.333-3,2.333s-0.333,5.667-1.667,9c-0.858,2.146-2.684,6.917-3.876,10.044c-0.592,1.553,0.328,3.263,1.951,3.622
						c5.276,1.167,16.405,3.739,25.925,6.668c13,4,27.333,2,29,1.667c1.667-0.333,8.333-4.333,5.333-7
						c-3-2.667-20.667-9.667-24.333-14.333C244.389,436.135,241.389,428.469,241.389,428.469z"/>
					<path style="fill:#FFFFFF;stroke:#263238;stroke-linecap:round;stroke-linejoin:round;stroke-miterlimit:10;" d="
						M271.054,454.199c-0.021,3.312-1.699,6.603-6.998,6.603c-5.333,0-14.667-0.667-28-6c-10.53-4.212-20.847-6.759-24.721-7.645
						c-0.412,1.076-0.81,2.118-1.154,3.022c-0.592,1.553,0.328,3.263,1.951,3.622c5.276,1.167,16.405,3.739,25.925,6.668
						c13,4,27.333,2,29,1.667c1.667-0.333,8.333-4.333,5.333-7C272.086,454.866,271.627,454.55,271.054,454.199z"/>
				</g>
			</g>
			<g>
				<path style="fill:#92E3A9;stroke:#263238;stroke-linecap:round;stroke-linejoin:round;stroke-miterlimit:10;" d="
					M140.662,226.025c0,0-3.629,28.732-3.327,34.176c0.302,5.444,4.234,52.323,5.141,62.606
					c0.907,10.283,5.142,19.356,12.703,21.171c7.561,1.815,27.22,4.537,35.688,2.419c8.469-2.117,17.542-21.171,20.566-28.43
					c3.024-7.259,5.142-11.795,4.234-13.307c-0.907-1.512-4.839-4.839-4.839-4.839s-7.561-55.045-9.376-69.26
					c-1.815-14.215-0.907-15.425-7.561-20.869C187.239,204.249,152.76,199.712,140.662,226.025z"/>
				<path style="fill:none;stroke:#263238;stroke-linecap:round;stroke-linejoin:round;stroke-miterlimit:10;" d="M189.061,326.309
					c-1.095,0.834-2.227,1.624-3.394,2.357"/>
				<path style="fill:none;stroke:#263238;stroke-linecap:round;stroke-linejoin:round;stroke-miterlimit:10;" d="M209,302
					c0,0-6.42,12.602-17.051,21.942"/>
				<path style="fill:none;stroke:#263238;stroke-linecap:round;stroke-linejoin:round;stroke-miterlimit:10;" d="M204.333,302.667
					c0,0-10.333,9.667-20.667,15.667"/>
			</g>
			<g>
				<g>
					<path style="fill:#FFFFFF;stroke:#263238;stroke-linecap:round;stroke-linejoin:round;stroke-miterlimit:10;" d="
						M212.644,135.594c0,0,3.024,6.351,3.932,10.888c0.907,4.537,1.21,8.771,3.327,9.678s6.049,1.21,5.444,3.629
						c-0.605,2.42-4.537,6.351-4.537,6.351s0.907,14.517,0.605,17.239c-0.303,2.722-16.332,2.722-17.239,2.722
						c-0.907,0-9.981,21.474-9.981,21.474l-25.405-12.703l4.839-15.727c0,0-7.864-15.122-8.468-21.776
						c-0.605-6.654,14.82-18.751,23.591-21.473C197.522,133.175,212.644,135.594,212.644,135.594z"/>
					<polygon style="fill:#263238;stroke:#263238;stroke-linecap:round;stroke-linejoin:round;stroke-miterlimit:10;" points="
						204.176,186.102 196.109,183.796 199.125,195.607 					"/>
					<path style="fill:#263238;" d="M215.635,152.703c0.408,1.706,0.212,3.214-0.437,3.37c-0.65,0.156-1.508-1.101-1.916-2.807
						c-0.408-1.706-0.212-3.215,0.437-3.37C214.369,149.741,215.227,150.997,215.635,152.703z"/>
					<path style="fill:none;stroke:#263238;stroke-linecap:round;stroke-linejoin:round;stroke-miterlimit:10;" d="M210.527,168.863
						c0,0,3.629,2.722,6.956,1.512"/>
				</g>
				<path style="fill:#263238;stroke:#263238;stroke-linecap:round;stroke-linejoin:round;stroke-miterlimit:10;" d="
					M211.132,129.848c0,0,4.234,7.561,1.21,12.4c-3.024,4.839-10.283,6.956-14.215,11.493c-3.932,4.537-6.049,12.4-7.561,13.005
					c-1.512,0.605-6.049-8.468-8.771-7.863s-7.259,6.956-3.327,13.61c3.932,6.654,10.888,5.746,10.888,5.746
					s-10.888,5.746-13.005,5.746c-2.117,0-8.468-3.629-11.493-6.956c-3.025-3.327-13.912-13.308-14.517-21.474
					s10.283-18.449,10.283-18.449s-13.005-0.907-9.678-5.747c3.327-4.839,15.122-7.864,15.122-7.864s-2.117-7.561,0.907-9.073
					c3.024-1.512,21.473,4.537,21.473,4.537s-5.142-6.654,2.117-6.956C197.824,111.701,210.224,120.774,211.132,129.848z"/>
				<g>
					
						<line style="fill:none;stroke:#263238;stroke-linecap:round;stroke-linejoin:round;stroke-miterlimit:10;" x1="187.063" y1="162.687" x2="225.649" y2="147.087"/>
					<path style="fill:none;stroke:#263238;stroke-linecap:round;stroke-linejoin:round;stroke-miterlimit:10;" d="M215.59,144.9
						c0.814-0.344,1.709-0.535,2.649-0.535c3.758,0,6.805,3.047,6.805,6.805c0,2.549-1.401,4.77-3.475,5.936"/>
				</g>
			</g>
			<g>
				<path style="fill:#92E3A9;stroke:#263238;stroke-linecap:round;stroke-linejoin:round;stroke-miterlimit:10;" d="
					M201.454,216.044c0,0-0.302-8.771-2.722-11.19c-2.42-2.42-20.264-12.4-28.43-14.517c-8.166-2.117-16.634,0.907-22.078,2.722
					c-5.444,1.815-9.073,6.956-11.191,18.147c-2.117,11.19-2.419,18.147,2.117,18.751c4.537,0.605,10.888-13.005,25.103-15.727
					c14.215-2.722,27.22-0.302,30.244,1.21C197.522,216.952,201.454,216.044,201.454,216.044z"/>
				<path style="fill:none;stroke:#263238;stroke-linecap:round;stroke-linejoin:round;stroke-miterlimit:10;" d="M155.515,206.762
					c-2.727,0.958-4.57,1.721-4.57,1.721"/>
				<path style="fill:none;stroke:#263238;stroke-linecap:round;stroke-linejoin:round;stroke-miterlimit:10;" d="M201.454,216.044
					c0,0-19.054-10.586-26.01-12.703c-3.633-1.106-10.155,0.346-15.556,1.986"/>
			</g>
			<g>
				<path style="fill:#FFFFFF;stroke:#263238;stroke-linecap:round;stroke-linejoin:round;stroke-miterlimit:10;" d="
					M291.264,265.202c0,0-0.988,6.286-2.155,7.004c-1.167,0.718-1.078-5.837-1.078-5.837s-1.437,3.772-2.335,4.669
					c-0.898,0.898-0.359-3.861-0.359-3.861l0.988-4.49L291.264,265.202z"/>
				<path style="fill:#FFFFFF;stroke:#263238;stroke-linecap:round;stroke-linejoin:round;stroke-miterlimit:10;" d="
					M278.457,258.977l9.278,0.153c0,0,2.451,0.35,2.801,1.75s1.75,4.551,1.75,4.551l-14.354-4.201L278.457,258.977z"/>
				<path style="fill:#FFFFFF;stroke:#263238;stroke-linecap:round;stroke-linejoin:round;stroke-miterlimit:10;" d="
					M281.783,261.931c0,0,12.953-1.75,13.304-0.7c0.264,0.793,1.267,7.908,1.478,10.206c0.034,0.364-0.428,0.546-0.654,0.258
					l-3.625-6.263l-9.802,0.7C282.484,266.132,279.683,263.681,281.783,261.931z"/>
				<path style="fill:#92E3A9;stroke:#263238;stroke-linecap:round;stroke-linejoin:round;stroke-miterlimit:10;" d="
					M174.306,222.721c0,0-8.052,5.951-5.251,20.655c2.801,14.704,22.406,54.964,24.156,58.465c1.75,3.501,9.452,3.851,12.953,2.801
					c3.501-1.05,65.817-25.907,65.817-25.907s6.652-1.751,7.702-3.151c1.05-1.4,7.702-8.752,7.702-8.752s10.503,1.4,12.953,0.7
					c2.451-0.7-2.451-1.4-4.901-2.1c-1.889-0.54-12.303-4.614-16.98-6.455c-1.379-0.543-2.944-0.208-3.979,0.853
					c-3.281,3.363-10.269,10.489-11.599,11.553c-1.751,1.4-51.113,9.803-51.113,9.803s-11.553-54.264-16.104-58.815
					c-4.551-4.551-12.603-3.501-12.603-3.501"/>
				<path style="fill:#FFFFFF;stroke:#263238;stroke-linecap:round;stroke-linejoin:round;stroke-miterlimit:10;" d="
					M239.421,291.677c16.35-6.476,32.56-12.942,32.56-12.942s6.652-1.75,7.702-3.151c1.05-1.4,7.702-8.752,7.702-8.752
					s10.503,1.4,12.953,0.7c2.451-0.7-2.451-1.4-4.901-2.1c-1.889-0.54-12.303-4.615-16.98-6.455
					c-1.379-0.543-2.944-0.208-3.979,0.853c-3.281,3.363-10.269,10.489-11.599,11.553c-0.91,0.728-14.7,3.351-27.725,5.7
					L239.421,291.677z"/>
			</g>
		</g>
	</g>
	<g>
		<g>
			<path style="fill:#9C9C9C;stroke:#263238;stroke-linecap:round;stroke-linejoin:round;stroke-miterlimit:10;" d="M130,360.584
				l-15.247,101.341c-0.197,1.026,1.294,1.4,1.605,0.404l22.975-100.078L130,360.584z"/>
			<path style="fill:#9C9C9C;stroke:#263238;stroke-linecap:round;stroke-linejoin:round;stroke-miterlimit:10;" d="
				M152.758,361.246l6.636,100.487c0.078,1.042,1.615,1.013,1.655-0.03l1.153-101.289L152.758,361.246z"/>
			<path style="fill:#9C9C9C;stroke:#263238;stroke-linecap:round;stroke-linejoin:round;stroke-miterlimit:10;" d="
				M175.125,362.765l18.202,98.734c0.224,1.02,1.741,0.776,1.634-0.263l-10.603-100.622L175.125,362.765z"/>
			<path style="fill:#9C9C9C;stroke:#263238;stroke-linecap:round;stroke-linejoin:round;stroke-miterlimit:10;" d="
				M210.307,361.927l14.892,99.407c0.182,1.028,1.708,0.846,1.644-0.196l-7.222-100.984L210.307,361.927z"/>
		</g>
		<path style="fill:#FFFFFF;stroke:#263238;stroke-linecap:round;stroke-linejoin:round;stroke-miterlimit:10;" d="M196.077,341.696
			c0,0-17.504-5.835-25.672-26.839c-8.169-21.005-21.588-57.18-30.924-61.847c-9.335-4.668-27.423,4.084-28.59,37.925
			c-1.167,33.841,1.569,59.023,9.109,67.316c6.667,7.333,18,16.667,57.333,17.333c35.124,0.595,49.47-12.794,54.333-17.333
			c5-4.667,12.838-14.221,6.42-14.221C231.668,344.03,204.245,344.03,196.077,341.696z"/>
	</g>
</g>
<g id="Butterfly">
	<g>
		<g>
			<path style="fill:#FFFFFF;stroke:#263238;stroke-linecap:round;stroke-linejoin:round;stroke-miterlimit:10;" d="
				M276.934,133.953c0,0-6.832-7.971-16.321-9.489c-9.489-1.518-10.13,12.345,2.015,18.418c5.182,2.591,10.889,1.698,10.889,1.698
				s-9.683,11.45-3.416,13.284c14.053,4.113,11.007-17.459,11.007-17.459L276.934,133.953z"/>
			<path style="fill:#FFFFFF;stroke:#263238;stroke-linecap:round;stroke-linejoin:round;stroke-miterlimit:10;" d="
				M279.229,133.452c0,0-3.986-9.712-1.017-18.851s14.892-2.935,14.769,10.644c-0.052,5.793-2.735,10.004-2.735,10.004
				s15.262-3.247,13.383,3.007c-4.271,14.219-20.556,1.851-20.556,1.851L279.229,133.452z"/>
			<g>
				<path style="fill:#263238;" d="M284.525,145.58c-0.341,0-0.673-0.174-0.86-0.489l-9.488-15.941
					c-0.282-0.474-0.127-1.088,0.348-1.371c0.474-0.282,1.088-0.127,1.371,0.348l9.488,15.941c0.282,0.474,0.127,1.088-0.348,1.371
					C284.876,145.535,284.699,145.58,284.525,145.58z"/>
			</g>
			<path style="fill:none;stroke:#263238;stroke-linecap:round;stroke-linejoin:round;stroke-miterlimit:10;" d="M275.795,130.537
				c0,0-3.416-7.211-9.489-7.971"/>
			<path style="fill:none;stroke:#263238;stroke-linecap:round;stroke-linejoin:round;stroke-miterlimit:10;" d="M275.896,128.127
				c0,0-1.998-5.941-0.48-9.736"/>
		</g>
		<path style="fill:#92E3A9;stroke:#263238;stroke-linecap:round;stroke-linejoin:round;stroke-miterlimit:10;" d="M269.848,134.87
			c-0.358,1.765-2.982,2.722-5.861,2.139c-2.879-0.583-4.923-2.487-4.565-4.251c0.358-1.765,2.982-2.722,5.861-2.139
			C268.161,131.202,270.205,133.105,269.848,134.87z"/>
		<path style="fill:#92E3A9;stroke:#263238;stroke-linecap:round;stroke-linejoin:round;stroke-miterlimit:10;" d="M276.949,147.266
			c1.018,0.669,0.959,2.558-0.132,4.219c-1.091,1.661-2.801,2.466-3.82,1.797c-1.018-0.669-0.959-2.558,0.132-4.219
			C274.22,147.402,275.931,146.598,276.949,147.266z"/>
		<path style="fill:#92E3A9;stroke:#263238;stroke-linecap:round;stroke-linejoin:round;stroke-miterlimit:10;" d="M297.789,138.904
			c0.016,1.218-1.583,2.227-3.57,2.252c-1.988,0.026-3.612-0.941-3.627-2.159c-0.016-1.218,1.583-2.227,3.57-2.252
			C296.149,136.719,297.773,137.686,297.789,138.904z"/>
		<path style="fill:#92E3A9;stroke:#263238;stroke-linecap:round;stroke-linejoin:round;stroke-miterlimit:10;" d="M285.466,128.462
			c-1.79,0.198-3.502-2.008-3.826-4.928c-0.323-2.92,0.866-5.447,2.655-5.645c1.789-0.198,3.502,2.008,3.825,4.928
			C288.444,125.736,287.256,128.264,285.466,128.462z"/>
	</g>
</g>
<g id="Floor">
	
		<line style="fill:#FFFFFF;stroke:#263238;stroke-linecap:round;stroke-linejoin:round;stroke-miterlimit:10;" x1="24.155" y1="462.929" x2="489.944" y2="462.929"/>
</g>
</svg>
