<?xml version="1.0" encoding="utf-8"?>
<!-- Generator: Adobe Illustrator 27.5.0, SVG Export Plug-In . SVG Version: 6.00 Build 0)  -->
<svg version="1.1" xmlns="http://www.w3.org/2000/svg" xmlns:xlink="http://www.w3.org/1999/xlink" x="0px" y="0px"
	 viewBox="125 70 500 310" xml:space="preserve">

<g id="OBJECTS">
	<g>
		<g>
			<g>
				<text transform="matrix(1 0 0 1 285.5981 104.9203)" style="fill:#FF5E69; font-family:'Roboto-Black'; font-size:34.4295px;">ERROR 404</text>
				
					<text transform="matrix(1 0 0 1 268.9131 129.7934)" style="fill:#277FD9; font-family:'Raleway-Medium'; font-size:18.2453px; letter-spacing:3;">PAGE NOT FOUND</text>
			</g>
			<g>
				<polygon style="fill:#DCA86E;" points="548.348,301.321 581.209,372.349 584.912,372.337 556.497,296.708 				"/>
				<polygon style="fill:#DCA86E;" points="514.358,302.839 481.496,372.349 477.793,372.337 506.208,301.262 				"/>
				
					<linearGradient id="SVGID_1_" gradientUnits="userSpaceOnUse" x1="436.2589" y1="347.8755" x2="465.1466" y2="347.8755" gradientTransform="matrix(0.8061 0.5918 -0.5918 0.8061 256.0799 -190.8067)">
					<stop  offset="0" style="stop-color:#343A44"/>
					<stop  offset="0.3009" style="stop-color:#232D3E"/>
					<stop  offset="0.6391" style="stop-color:#182439"/>
					<stop  offset="1" style="stop-color:#142138"/>
				</linearGradient>
				<path style="fill:url(#SVGID_1_);" d="M430.86,357.127l-16.703,14.615l-19.69-13.858c0,0,6.702-2.247,18.193,0.813l11.76-9.882
					L430.86,357.127z"/>
				<path style="fill:#2167BE;" d="M527.547,276.507c0,0-36.915,18.922-49.957,24.582c-13.042,5.661-57.412,50.093-57.412,50.093
					s5.68,11.567,8.522,9.536c25.053-17.912,48.133-33.94,62.965-39.532c29.37-11.074,37.555-13.481,45.078-22.2
					C536.742,298.987,532.329,288.509,527.547,276.507z"/>
				<g>
					
						<linearGradient id="SVGID_00000063606154657496911220000007840133601982961051_" gradientUnits="userSpaceOnUse" x1="441.1434" y1="359.2961" x2="470.0314" y2="359.2961">
						<stop  offset="0" style="stop-color:#343A44"/>
						<stop  offset="0.3009" style="stop-color:#232D3E"/>
						<stop  offset="0.6391" style="stop-color:#182439"/>
						<stop  offset="1" style="stop-color:#142138"/>
					</linearGradient>
					<path style="fill:url(#SVGID_00000063606154657496911220000007840133601982961051_);" d="M470.031,349.667l-4.815,21.666
						l-24.073,0.481c0,0,4.072-5.778,15.146-10.111l3.631-14.926L470.031,349.667z"/>
					<path style="fill:#277FD9;" d="M528.443,271.703c0,0-34.338,3.705-46.856,10.445c-12.518,6.741-22.482,68.556-22.482,68.556
						s9.723,5.278,10.927,1.999c9.71-26.441,20.482-47.15,20.482-47.15c12.338-2.254,40.915,11.654,61.569-8.691
						C552.083,296.862,534.22,283.258,528.443,271.703z"/>
				</g>
				<g>
					<path style="fill:#FEC4AD;" d="M587.612,229.965c0,0-2.479,4.106-4.042,9.248l-14.124-1.305c0,0,7.292-11.049,6.734-17.75
						L587.612,229.965z"/>
					<g>
						<path style="fill:#FEC4AD;" d="M584.575,207.137c-0.802-0.213-3.82-1.044-4.431-0.795c-0.847,0.346,0.138,1.456-0.459,2.134
							c-0.965,1.098-2.897,1.12-4.142,1.787c-1.509,0.808-2.659,1.87-3.349,3.083c-1.15,2.021,3.039,6.532,3.694,9.913
							c1.372,7.072,10.311,8.118,17.573,5.954c2.596-0.774,4.985-3.109,6.4-5.374c1.664-2.661,0.726-7.111-0.668-9.762
							c-0.836-1.59-2.492-2.96-3.938-3.958c-1.309-0.903-1.672-4.658-3.249-4.924C592.009,205.195,586.381,207.616,584.575,207.137z
							"/>
					</g>
					
						<linearGradient id="SVGID_00000015315238253115875380000015342477918988751794_" gradientUnits="userSpaceOnUse" x1="428.5518" y1="166.0372" x2="459.8663" y2="166.0372" gradientTransform="matrix(-0.6574 -0.7535 -0.7535 0.6574 1011.1113 441.8606)">
						<stop  offset="0" style="stop-color:#343A44"/>
						<stop  offset="0.3009" style="stop-color:#232D3E"/>
						<stop  offset="0.6391" style="stop-color:#182439"/>
						<stop  offset="1" style="stop-color:#142138"/>
					</linearGradient>
					<path style="fill:url(#SVGID_00000015315238253115875380000015342477918988751794_);" d="M604.854,226.122
						c0.016,0.014-0.244-1.186,1.805-3.115c6.776-6.38-0.472-18.859-7.856-21.033c-3.777-1.112-6.192,0.06-7.547-3.694
						c0.097,0.269-1.527,0.958-1.688,1.094c-0.886,0.75-1.308,1.278-1.336,2.517c-0.125,5.454,4.756,10.532,8.449,13.967
						c1.661,1.545-2.426,0.479-4.073,0.794c-1.073,0.205-3.855,3.144-4.452,3.588c1.549,1.929,2.928,0.188,5.016,1.119
						c1.93,0.861,0.707,3.317-1.091,3.607c-2.786,0.45-3.92-1.387-3.92-1.387c-1.277,0.693-1.481,4.83-2.485,5.912
						c1.385,0.761,9.459,2.18,11.353,2.157C601.074,231.6,603.554,229.362,604.854,226.122z"/>
				</g>
				<path style="fill:#FF5E69;" d="M587.155,232.162c2.961,33.031-35.072,64.7-35.072,64.7s-24.833,0.934-23.64-25.159
					c0,0,1.933-4.745,17.306-18.677c10.271-9.309,17.487-23.201,24.715-22.924C590.204,230.857,587.155,232.162,587.155,232.162z"/>
				
					<linearGradient id="SVGID_00000065045283291009487930000013725391916958526849_" gradientUnits="userSpaceOnUse" x1="494.9105" y1="269.184" x2="590.6857" y2="269.184">
					<stop  offset="0" style="stop-color:#343A44"/>
					<stop  offset="0.3009" style="stop-color:#232D3E"/>
					<stop  offset="0.6391" style="stop-color:#182439"/>
					<stop  offset="1" style="stop-color:#142138"/>
				</linearGradient>
				<path style="fill:url(#SVGID_00000065045283291009487930000013725391916958526849_);" d="M494.91,298.684
					c0,0,22.904,8.543,53.429-3.036c30.526-11.579,38.853-65.646,38.853-65.646l3.492,1.771c0,0-3.399,59.664-43.59,72.63
					c-30.725,9.912-52.185-1.893-52.185-1.893V298.684z"/>
				<g>
					<path style="fill:#F8D2A1;" d="M583.481,265.157c0,0,3.657,12.673,3.86,18.99c0.204,6.316-2.496,27.762-2.496,27.762
						l5.818,0.737c0,0,5.17-25.561,5.291-33.902c0.121-8.341-4.689-21.855-4.689-21.855L583.481,265.157z"/>
					<path style="fill:#FF5E69;" d="M583.117,265.693c4.224,18.455,2.473,43.189,2.473,43.189l6.313,0.402
						c6.921-14.478,6.273-46.555,2.613-60.051c-2.15-7.93-3.417-15.924-8.782-17.157c-3.354-0.771-10.253,1.684-11.178,4.999
						C572.551,244.268,581.045,256.639,583.117,265.693z"/>
					<path style="fill:#F8D2A1;" d="M582.242,315.098c-1.393,2.653-2.024,4.598-1.204,5.268c0.567,0.462,1.477-2.114,2.578-3.033
						c0.324,1.073,0.366,3.078-0.32,4.766c-0.777,1.913-0.709,3.548,0.744,3.689c1.453,0.141,3.817,0.045,4.343-1.16
						c0.525-1.204,1.721-6.228,2.366-7.901c0.646-1.672-0.211-3.593,0.035-4.55c0.247-0.958-4.292-2.56-4.292-2.56
						c-0.249,0.385-1.647,2.292-1.647,2.292s-1.179,1.411-1.585,1.668C582.855,313.834,582.242,315.098,582.242,315.098z"/>
				</g>
			</g>
			<g>
				
					<line style="fill:none;stroke:#D4DBE2;stroke-width:0.25;stroke-miterlimit:10;" x1="547.782" y1="55.711" x2="547.782" y2="99.71"/>
				<path style="fill:#FFBA01;" d="M555.574,116.631c-0.328,4.249-4.039,7.428-8.288,7.1c-4.249-0.328-7.428-4.039-7.1-8.288
					c0.328-4.249,4.039-7.428,8.288-7.1C552.723,108.671,555.902,112.382,555.574,116.631z"/>
				<polygon style="fill:#D2DCEB;" points="584.219,119.313 511.345,119.313 543.239,96.105 552.326,96.105 				"/>
			</g>
			<g>
				
					<line style="fill:none;stroke:#D4DBE2;stroke-width:0.25;stroke-miterlimit:10;" x1="204.717" y1="55.711" x2="204.717" y2="99.71"/>
				<path style="fill:#FFBA01;" d="M212.508,116.631c-0.328,4.249-4.038,7.428-8.288,7.1c-4.249-0.328-7.428-4.039-7.1-8.288
					c0.328-4.249,4.039-7.428,8.288-7.1C209.657,108.671,212.836,112.382,212.508,116.631z"/>
				<polygon style="fill:#D2DCEB;" points="241.153,119.313 168.279,119.313 200.173,96.105 209.26,96.105 				"/>
			</g>
			
				<line style="fill:none;stroke:#A6AEBA;stroke-width:0.5;stroke-miterlimit:10;" x1="125.841" y1="372.001" x2="624.159" y2="372.001"/>
			<g>
				<g>
					<g>
						<path style="fill:#50CC85;" d="M306.988,218.912c0,0,1.538-3.764,4.331-7.117c2.793-3.353,6.957-8.936,6.957-8.936
							s-2.031,3.974-4.788,8.464C310.73,215.813,306.988,218.912,306.988,218.912z"/>
						<path style="fill:#50CC85;" d="M309.876,212.369c0,0,3.092-2.43,4.949-7.572c1.857-5.143,3.549-9.058,3.549-9.058
							s-4.012,5.738-5.735,9.715C310.915,209.43,309.876,212.369,309.876,212.369z"/>
						<path style="fill:#50CC85;" d="M307.196,218.184c0,0,1.618-5.882,1.935-10.577c0.318-4.695,0.282-7.644,0.282-7.644
							s-2.04,8.519-2.655,12.137C306.143,215.718,307.196,218.184,307.196,218.184z"/>
						<path style="fill:#50CC85;" d="M305.811,222.089c0,0,0.518-6.058-1.185-11.478c-1.703-5.419-1.795-8.86-1.795-8.86
							s-0.818,5.674,0.153,10.565C303.954,217.208,305.811,222.089,305.811,222.089z"/>
						<path style="fill:#50CC85;" d="M306.313,220.751c0,0,4.303-3.675,6.478-4.54c2.175-0.865,5.203-3.383,5.203-3.383
							s-3.738,4.786-5.825,5.735C310.082,219.511,306.313,220.751,306.313,220.751z"/>
						<path style="fill:#50CC85;" d="M304.828,225.893c0,0,0.417-3.308-1.506-7.995c-1.923-4.687-2.368-7.006-2.368-7.006
							s-0.114,6.364,1.151,8.752C303.37,222.032,304.828,225.893,304.828,225.893z"/>
						<path style="fill:#50CC85;" d="M305.23,223.484c0,0,2.473-1.65,4.857-1.985s3.02-0.659,3.02-0.659s-1.206,2.203-4.146,2.574
							C306.021,223.786,305.23,223.484,305.23,223.484z"/>
						<path style="fill:#50CC85;" d="M303.612,229.05c0.534-2.08,1.222-5.295,1.932-7.444c1.565-4.742,5.289-10.852,5.289-10.852
							c-2.274,5.045-3.935,7.881-5.079,12.232c-0.453,1.724-1.236,4.117-1.66,5.681C304.025,229.095,303.682,229.454,303.612,229.05
							z"/>
					</g>
					<g>
						<path style="fill:#77E6A6;" d="M304.711,220.608c0,0-0.244-4.315-1.891-8.652c-1.648-4.337-3.902-11.389-3.902-11.389
							s0.667,4.697,1.885,10.164C302.021,216.198,304.711,220.608,304.711,220.608z"/>
						<path style="fill:#77E6A6;" d="M304.071,213.032c0,0-2.268-3.512-2.355-9.323c-0.087-5.811-0.434-10.333-0.434-10.333
							s2.048,7.155,2.405,11.749C304.043,209.718,304.071,213.032,304.071,213.032z"/>
						<path style="fill:#77E6A6;" d="M304.753,219.804c0,0,0.409-6.472,1.714-11.301c1.305-4.829,2.361-7.781,2.361-7.781
							s-0.896,9.269-1.53,13.118C306.664,217.689,304.753,219.804,304.753,219.804z"/>
						<path style="fill:#77E6A6;" d="M304.794,224.208c0,0,1.575-6.269,5.162-11.127c3.586-4.858,4.869-8.284,4.869-8.284
							s-1.141,5.986-3.808,10.566C308.349,219.944,304.794,224.208,304.794,224.208z"/>
						<path style="fill:#77E6A6;" d="M304.753,222.689c0,0-3.054-5.182-4.941-6.804c-1.887-1.621-4.06-5.201-4.06-5.201
							s2.102,6.104,3.872,7.779C301.393,220.139,304.753,222.689,304.753,222.689z"/>
						<path style="fill:#77E6A6;" d="M304.466,228.371c0,0,0.726-3.469,4.28-7.515c3.554-4.046,4.803-6.223,4.803-6.223
							s-2.087,6.437-4.185,8.399C307.267,224.995,304.466,228.371,304.466,228.371z"/>
						<path style="fill:#77E6A6;" d="M304.896,225.811c0,0-1.915-2.514-4.195-3.675c-2.281-1.161-2.808-1.707-2.808-1.707
							s0.45,2.631,3.277,4.022C303.996,225.841,304.896,225.811,304.896,225.811z"/>
						<path style="fill:#50CC85;" d="M304.596,231.965c0.183-2.275,0.603-5.745,0.633-8.15c0.067-5.308-1.562-12.738-1.562-12.738
							c0.541,5.857,1.229,9.283,0.874,14.052c-0.141,1.89-0.181,4.566-0.296,6.285C304.166,231.868,304.386,232.348,304.596,231.965
							z"/>
					</g>
					<g>
						<path style="fill:#50CC85;" d="M301.439,221.502c0,0-1.538-3.764-4.331-7.117c-2.793-3.353-6.957-8.936-6.957-8.936
							s2.031,3.974,4.788,8.464C297.696,218.403,301.439,221.502,301.439,221.502z"/>
						<path style="fill:#50CC85;" d="M298.55,214.959c0,0-3.092-2.43-4.949-7.572c-1.857-5.143-3.55-9.058-3.55-9.058
							s4.012,5.738,5.735,9.715C297.511,212.02,298.55,214.959,298.55,214.959z"/>
						<path style="fill:#50CC85;" d="M301.23,220.774c0,0-1.618-5.882-1.935-10.577c-0.318-4.695-0.282-7.644-0.282-7.644
							s2.04,8.519,2.655,12.137C302.283,218.308,301.23,220.774,301.23,220.774z"/>
						<path style="fill:#50CC85;" d="M302.615,224.679c0,0-0.518-6.058,1.185-11.478c1.703-5.42,1.796-8.86,1.796-8.86
							s0.817,5.674-0.153,10.565C304.472,219.798,302.615,224.679,302.615,224.679z"/>
						<path style="fill:#50CC85;" d="M302.113,223.341c0,0-4.303-3.675-6.478-4.54c-2.175-0.865-5.204-3.383-5.204-3.383
							s3.738,4.786,5.826,5.735C298.344,222.101,302.113,223.341,302.113,223.341z"/>
						<path style="fill:#50CC85;" d="M303.598,228.483c0,0-0.417-3.308,1.506-7.995c1.923-4.687,2.368-7.006,2.368-7.006
							s0.114,6.364-1.151,8.752C305.056,224.622,303.598,228.483,303.598,228.483z"/>
						<path style="fill:#50CC85;" d="M303.196,226.073c0,0-2.473-1.65-4.857-1.985c-2.384-0.335-3.02-0.659-3.02-0.659
							s1.206,2.203,4.146,2.574C302.405,226.376,303.196,226.073,303.196,226.073z"/>
						<path style="fill:#50CC85;" d="M304.814,231.639c-0.534-2.08-1.223-5.295-1.932-7.444c-1.565-4.742-5.289-10.852-5.289-10.852
							c2.275,5.045,3.936,7.881,5.079,12.232c0.453,1.724,1.236,4.117,1.66,5.681C304.401,231.684,304.744,232.044,304.814,231.639z
							"/>
					</g>
					<polygon style="fill:#D2DCEB;" points="310.278,246.163 298.611,246.163 295.006,225.613 314.303,225.613 					"/>
				</g>
				<g>
					<g>
						<polygon style="fill:#DCA86E;" points="443.572,251.809 462.813,372.115 466.517,372.103 451.293,251.784 						"/>
						<polygon style="fill:#DCA86E;" points="310.934,251.864 285.874,372.289 280.885,372.301 300.531,251.888 						"/>
					</g>
					<rect x="271.487" y="244.777" style="fill:#DCA86E;" width="207.025" height="9.265"/>
					<rect x="261.562" y="244.777" style="fill:#F3BA7A;" width="226.877" height="6.151"/>
				</g>
				<g>
					<g>
						<polygon style="fill:#A6AEBA;" points="424.994,241.534 416.941,241.534 408.889,190.157 415.011,190.157 						"/>
						<polygon style="fill:#D2DCEB;" points="422.682,241.534 391.254,241.534 383.202,190.157 414.63,190.157 						"/>
						<rect x="390.832" y="240.369" style="fill:#D2DCEB;" width="34.162" height="3.833"/>
						<rect x="424.994" y="240.369" style="fill:#A6AEBA;" width="43.072" height="3.833"/>
						<path style="fill:#A6AEBA;" d="M405.421,218.344c0.91,3.933,0.269,8.18-1.43,9.487c-1.699,1.307-3.814-0.822-4.724-4.755
							c-0.91-3.933-0.269-8.18,1.43-9.487C402.397,212.283,404.512,214.411,405.421,218.344z"/>
					</g>
				</g>
				<g>
					<path style="fill:#A6AEBA;" d="M356.534,244.022h-4.458c-1.842,0-3.408-1.342-3.691-3.162l-1.781-11.471h15.401l-1.781,11.471
						C359.943,242.68,358.376,244.022,356.534,244.022z"/>
					<g>
						<path style="fill:#A6AEBA;" d="M360.664,241.577c-0.162,0-0.325-0.005-0.493-0.018l-0.208-0.016l-0.166-0.128
							c-0.111-0.084-2.712-2.12-2.712-5.035c0-2.984,1.982-5.413,4.418-5.413c1.468,0,2.776,0.555,3.587,1.525
							c0.579,0.692,1.192,1.952,0.822,4.013l0,0C365.325,239.753,363.424,241.577,360.664,241.577z M360.497,240.173
							c2.813,0.089,3.7-2.067,4.034-3.918l0,0c0.221-1.225,0.046-2.19-0.518-2.864c-0.543-0.65-1.457-1.023-2.509-1.023
							c-1.662,0-3.015,1.799-3.015,4.011C358.488,238.241,360,239.731,360.497,240.173z"/>
					</g>
				</g>
				<polygon style="fill:#D2DCEB;" points="345.07,245.03 364.59,245.03 367.703,241.583 341.956,241.583 				"/>
			</g>
			<g>
				<rect x="148.229" y="170.039" style="fill:#B6BFCC;" width="93.405" height="202.036"/>
				<rect x="158.982" y="178.866" style="fill:#D2DCEB;" width="71.899" height="21.184"/>
				<path style="fill:#FFFFFF;" d="M203.53,192.026h-17.198c-0.442,0-0.8-0.358-0.8-0.8v-3.536c0-0.442,0.358-0.8,0.8-0.8h17.198
					c0.442,0,0.8,0.358,0.8,0.8v3.536C204.33,191.668,203.972,192.026,203.53,192.026z"/>
				<rect x="158.982" y="205.826" style="fill:#D2DCEB;" width="71.899" height="21.185"/>
				<path style="fill:#FFFFFF;" d="M203.53,218.986h-17.198c-0.442,0-0.8-0.358-0.8-0.8v-3.536c0-0.442,0.358-0.8,0.8-0.8h17.198
					c0.442,0,0.8,0.358,0.8,0.8v3.536C204.33,218.628,203.972,218.986,203.53,218.986z"/>
				<rect x="158.982" y="232.786" style="fill:#D2DCEB;" width="71.899" height="21.184"/>
				<path style="fill:#FFFFFF;" d="M203.53,245.945h-17.198c-0.442,0-0.8-0.358-0.8-0.8v-3.536c0-0.442,0.358-0.8,0.8-0.8h17.198
					c0.442,0,0.8,0.358,0.8,0.8v3.536C204.33,245.587,203.972,245.945,203.53,245.945z"/>
				<rect x="158.982" y="260.048" style="fill:#D2DCEB;" width="71.899" height="103.841"/>
				<path style="fill:#FFFFFF;" d="M203.53,273.208h-17.198c-0.442,0-0.8-0.358-0.8-0.8v-3.536c0-0.442,0.358-0.8,0.8-0.8h17.198
					c0.442,0,0.8,0.358,0.8,0.8v3.536C204.33,272.85,203.972,273.208,203.53,273.208z"/>
			</g>
		</g>
	</g>
</g>

</svg>
